<?xml version="1.0" encoding="UTF-8"?>
<svg xmlns="http://www.w3.org/2000/svg" xmlns:xlink="http://www.w3.org/1999/xlink" width="566.93pt" height="331.74pt" viewBox="0 0 566.93 331.74" version="1.1">
<defs>
<clipPath id="clip1">
  <path d="M 181 121 L 566.929688 121 L 566.929688 331.738281 L 181 331.738281 Z M 181 121 "/>
</clipPath>
</defs>
<g id="surface1">
<path style=" stroke:none;fill-rule:nonzero;fill:rgb(0%,0%,0%);fill-opacity:1;" d="M 382.027344 52.679688 C 380.664063 53.023438 378.367188 51.507813 377.199219 52.34375 C 376.3125 51.542969 375.332031 50.84375 374.839844 49.648438 C 374.085938 49.734375 373.558594 49.40625 372.933594 49.085938 C 371.488281 48.957031 370.136719 48.734375 369 48.300781 C 368.609375 48.359375 368.402344 48.601563 367.988281 48.636719 C 367.335938 48.09375 366.574219 47.847656 365.40625 47.851563 C 364.554688 47.855469 363.066406 47.851563 362.597656 47.964844 C 361.15625 48.308594 360.683594 50.097656 359.902344 50.882813 C 358.910156 51.390625 357.855469 51.832031 357.542969 53.015625 C 358.5625 53.382813 359.488281 53.839844 360.351563 54.363281 C 360.535156 55.03125 360.878906 55.527344 360.914063 56.160156 C 361.046875 58.507813 359.449219 60.03125 358.667969 61.664063 C 359.175781 62.578125 360.386719 62.097656 361.25 62.449219 C 361.917969 62.71875 362.296875 63.65625 363.046875 63.570313 C 363.621094 65.117188 364.492188 66.667969 364.394531 68.398438 C 364.234375 71.269531 361.429688 72.492188 359.113281 73.339844 C 356.386719 72.847656 354.085938 71.933594 352.039063 70.757813 C 351.65625 72.777344 351.097656 75.167969 349.90625 76.707031 C 349.90625 77.042969 349.90625 77.382813 349.90625 77.71875 C 349.378906 79.445313 347.035156 79 345.300781 79.402344 C 344.398438 79.613281 343.632813 80.636719 342.269531 80.1875 C 342.101563 80.582031 342.195313 81.238281 341.816406 81.421875 C 341.351563 81.59375 340.828125 81.707031 340.132813 81.648438 C 338.984375 82.78125 338.199219 84.28125 337.101563 85.464844 C 336.667969 85.441406 336.273438 85.460938 335.980469 85.578125 C 335.550781 86.820313 334.855469 87.992188 334.292969 89.171875 C 334.074219 89.628906 334.015625 90.21875 333.730469 90.628906 C 333.140625 91.496094 332.03125 91.925781 331.484375 92.761719 C 329.949219 95.128906 330.058594 97.867188 328.566406 100.734375 C 327.023438 102.507813 324.699219 100.574219 322.726563 100.960938 C 322.878906 99.832031 325.1875 100.289063 324.859375 99.050781 C 323.980469 99.160156 323.101563 99.816406 322.164063 99.5 C 322.570313 98.464844 323.632813 98.917969 324.296875 98.265625 C 324.949219 97.625 324.976563 96.339844 325.53125 95.457031 C 325.984375 94.742188 326.625 94.609375 326.992188 93.886719 C 326.714844 93.375 326.984375 92.320313 326.429688 92.089844 C 325.601563 92.308594 325.210938 92.964844 324.632813 93.4375 C 324.394531 93.910156 324.507813 94.730469 323.621094 94.558594 C 323.519531 93.0625 324.933594 92.132813 325.082031 90.519531 C 325.601563 90.101563 326.144531 89.703125 326.429688 89.058594 C 326.804688 86.960938 328.128906 85.8125 328.679688 83.894531 C 329.070313 83.722656 329.597656 83.6875 329.800781 83.332031 C 329.867188 81.566406 330.589844 80.453125 331.148438 79.175781 C 332.277344 78.507813 332.722656 77.300781 333.730469 76.371094 C 334.648438 75.523438 336.269531 75.164063 336.539063 73.902344 C 335.675781 72.480469 333.976563 71.898438 332.609375 70.980469 C 331.863281 68.8125 330.15625 69.894531 328.453125 69.296875 C 327.726563 69.042969 327.214844 68.175781 326.542969 67.726563 C 325.5625 67.070313 323.824219 66.339844 322.613281 65.703125 C 322.074219 65.421875 321.648438 64.90625 321.152344 64.804688 C 320.621094 64.699219 319.988281 64.949219 319.46875 64.804688 C 318.605469 64.566406 318.117188 63.355469 317.332031 62.898438 C 315.472656 62.652344 314.371094 61.5625 313.179688 60.875 C 312.066406 60.238281 310.582031 59.972656 309.921875 58.855469 C 309.710938 58.613281 309.84375 58.03125 309.808594 57.621094 C 306.773438 53.765625 304.265625 49.390625 301.160156 45.605469 C 300.699219 45.617188 300.238281 45.628906 299.925781 45.496094 C 299.707031 43.140625 297.242188 43.054688 295.65625 41.789063 C 292.167969 39.003906 289.988281 35.464844 287.230469 32.359375 C 286.855469 32.359375 286.480469 32.359375 286.109375 32.359375 C 285.566406 31.886719 285.496094 31.304688 285.210938 30.675781 C 285.003906 30.21875 284.238281 29.328125 283.75 28.652344 C 282.785156 27.328125 281.777344 25.859375 280.605469 25.058594 C 280.269531 24.832031 279.789063 24.761719 279.480469 24.5 C 279.179688 24.242188 279.101563 23.679688 278.695313 23.152344 C 278.375 22.738281 277.792969 22.496094 277.570313 22.140625 C 277.410156 21.882813 277.402344 21.332031 277.234375 21.019531 C 276.710938 20.035156 275.804688 19.277344 275.660156 18.546875 C 275.425781 17.324219 275.839844 16.242188 275.660156 15.066406 C 276.507813 14.652344 276.832031 13.378906 277.796875 13.160156 C 280.105469 12.628906 279.984375 15.433594 280.492188 16.863281 C 280.796875 17.71875 281.265625 18.78125 281.839844 19.445313 C 282.152344 19.808594 283.027344 20.148438 283.523438 20.679688 C 283.933594 21.121094 284.285156 21.863281 284.761719 22.476563 C 285.210938 23.0625 285.683594 23.769531 286.109375 24.273438 C 286.914063 25.230469 288.542969 27.171875 289.476563 27.191406 C 290.445313 27.214844 291.105469 26.082031 292.285156 26.40625 C 293.550781 27.738281 295.054688 28.796875 296.328125 30.335938 C 297.320313 31.535156 297.875 33.078125 298.6875 34.378906 C 299.355469 35.449219 300.449219 35.601563 301.382813 36.289063 C 301.96875 36.71875 302.265625 37.386719 302.957031 37.746094 C 303.796875 38.183594 304.839844 38.226563 305.539063 38.871094 C 305.945313 39.242188 306.109375 39.832031 306.4375 40.21875 C 306.921875 40.789063 307.613281 41.074219 308.121094 41.566406 C 308.429688 41.863281 308.589844 42.28125 308.910156 42.574219 C 309.492188 43.113281 310.34375 43.183594 311.042969 43.699219 C 311.90625 44.332031 312.703125 47.011719 314.300781 45.382813 C 313.980469 44.5625 314.144531 43.5625 314.074219 42.574219 C 313.785156 38.582031 312.332031 34.238281 311.492188 31.011719 C 311.191406 29.851563 311.277344 28.710938 311.042969 27.53125 C 310.539063 25.011719 309.515625 22.4375 308.796875 19.894531 C 308.367188 18.382813 308.300781 16.761719 307.898438 15.292969 C 307.605469 14.230469 307.003906 13.230469 306.773438 12.148438 C 306.503906 10.863281 306.660156 9.4375 305.765625 8.441406 C 306.355469 4.945313 302.882813 4.832031 302.617188 2.492188 C 302.574219 2.085938 302.667969 1.417969 302.957031 1.03125 C 303.613281 0.152344 306.945313 -0.230469 308.121094 0.132813 C 309.230469 0.476563 309.464844 1.5625 310.144531 2.15625 C 310.144531 2.566406 310.144531 2.980469 310.144531 3.390625 C 310.652344 4.15625 310.972656 5.109375 311.605469 5.75 C 311.785156 8.3125 315.019531 8.609375 315.648438 10.914063 C 316.027344 12.304688 315.21875 13.6875 315.199219 15.066406 C 315.1875 15.765625 315.304688 16.722656 315.425781 17.425781 C 315.90625 20.257813 318.636719 21.945313 318.007813 25.058594 C 318.300781 25.628906 319.035156 25.753906 319.355469 26.296875 C 318.964844 28.683594 319.777344 29.148438 320.816406 30.5625 C 321.3125 31.234375 321.792969 31.972656 322.164063 32.695313 C 322.855469 34.058594 323.847656 35.90625 324.296875 37.523438 C 324.808594 39.363281 324.90625 41.445313 325.53125 42.910156 C 326.066406 44.160156 327.164063 45.050781 327.441406 46.394531 C 327.578125 47.054688 327.253906 47.519531 327.554688 48.078125 C 330.089844 48.3125 332.300781 48.871094 334.40625 49.535156 C 334.414063 47.636719 332.46875 46.191406 333.84375 44.597656 C 335.558594 44.542969 335.894531 43.84375 336.878906 43.023438 C 337.800781 42.257813 338.660156 42.109375 338.898438 41.003906 C 341.6875 39.488281 344.167969 37.664063 347.433594 36.625 C 348.125 35.816406 348.851563 34.53125 350.019531 34.492188 C 351.835938 34.429688 352.132813 37.128906 351.816406 39.207031 C 351.769531 39.523438 351.476563 39.710938 351.480469 39.992188 C 351.480469 40.285156 351.9375 41.335938 351.929688 41.675781 C 351.914063 42.109375 351.511719 42.535156 351.480469 43.023438 C 351.382813 44.425781 352.179688 45.769531 352.824219 46.28125 C 354.503906 44.867188 357.371094 42.164063 359.902344 41.003906 C 360.734375 40.621094 362.691406 40.363281 363.835938 40.554688 C 364.246094 40.625 364.550781 41 364.957031 41.117188 C 366.710938 41.625 368.792969 40.652344 370.460938 41.226563 C 371.304688 41.519531 371.714844 42.378906 372.707031 42.351563 C 373.0625 43.566406 373.574219 44.628906 374.164063 45.605469 C 376.058594 46.859375 379.339844 46.722656 381.691406 47.515625 C 381.832031 48.347656 382.191406 48.964844 382.703125 49.425781 C 382.558594 49.652344 382.15625 49.628906 382.253906 50.097656 C 382.644531 50.304688 383.183594 50.367188 383.265625 50.882813 C 382.84375 51.648438 382.859375 52.472656 382.027344 52.679688 "/>
<path style=" stroke:none;fill-rule:nonzero;fill:rgb(0%,0%,0%);fill-opacity:1;" d="M 498.003906 61.839844 C 497.644531 61.753906 497.339844 61.476563 497.070313 61.414063 C 495.800781 61.125 494.355469 61.125 492.90625 60.734375 C 490.484375 60.082031 488.449219 58.535156 486.699219 59.546875 C 485.558594 60.617188 484.546875 61.835938 483.640625 63.117188 C 482.714844 64.429688 481.570313 65.445313 480.582031 66.683594 C 479.539063 67.992188 478.84375 69.542969 477.863281 70.933594 C 477.933594 71.855469 477.445313 72.21875 477.351563 72.976563 C 476.660156 73.246094 476.28125 74.046875 475.398438 74.421875 C 473.300781 75.304688 469.910156 74.390625 468.683594 73.316406 C 466.894531 73.023438 465.460938 71.351563 463.242188 70.933594 C 462.472656 70.789063 461.609375 70.953125 460.777344 70.851563 C 459.699219 70.71875 458.605469 70.175781 457.550781 69.746094 C 456.644531 69.375 455.800781 69.070313 455.253906 68.554688 C 454.566406 67.90625 453.609375 66.476563 453.46875 65.324219 C 453.242188 63.484375 454.460938 62.6875 454.488281 60.90625 C 453.675781 60.734375 453.394531 59.792969 452.789063 59.632813 C 452.492188 59.550781 452.078125 59.753906 451.769531 59.714844 C 451.578125 59.691406 451.445313 59.519531 451.261719 59.460938 C 450.484375 59.222656 449.515625 59.335938 448.796875 58.953125 C 448.726563 58.078125 447.300781 58.175781 446.585938 58.441406 C 446.03125 58.140625 445.621094 57.703125 445.480469 56.996094 C 445.742188 56.722656 446.476563 56.914063 446.5 56.402344 C 446.402344 56.054688 445.964844 56.0625 445.90625 55.636719 C 445.855469 55.289063 446.183594 55 446.246094 54.617188 C 446.429688 53.5 446.40625 52.097656 446.753906 51.300781 C 447.769531 50.625 448.859375 48.765625 450.238281 48.328125 C 451.574219 47.902344 452.972656 48.457031 454.148438 48.835938 C 454.410156 49.140625 454.480469 49.640625 454.914063 49.773438 C 455.457031 49.550781 455.785156 49.113281 456.105469 48.667969 C 456.304688 46.054688 457.589844 43.8125 458.484375 41.613281 C 458.921875 41.46875 459.324219 40.976563 459.589844 40.507813 C 459.929688 39.898438 460.464844 39.121094 460.609375 38.46875 C 460.929688 37.027344 460.394531 35.457031 461.035156 34.132813 C 461.472656 34.257813 461.828125 34.359375 462.222656 34.132813 C 461.964844 35.480469 462.761719 36.683594 462.648438 38.382813 C 461.90625 38.894531 462.195313 39.492188 462.308594 40.253906 C 462.398438 40.867188 462.144531 41.382813 462.054688 42.039063 C 461.835938 43.644531 461.667969 44.820313 461.800781 45.949219 C 461.796875 46.3125 461.347656 46.230469 461.460938 46.710938 C 461.769531 48.085938 461.539063 50.121094 461.289063 51.472656 C 461.84375 52.035156 462.511719 51.210938 463.15625 51.640625 C 463.515625 53.210938 463.695313 54.957031 464.6875 55.890625 C 465.566406 56.1875 466.09375 56.75 466.558594 57.421875 C 466.867188 57.867188 466.964844 58.417969 467.238281 58.867188 C 467.71875 59.652344 468.773438 59.988281 469.363281 60.566406 C 469.886719 61.078125 470.007813 61.9375 470.554688 62.4375 C 472.3125 62.925781 474.046875 61.546875 474.886719 60.652344 C 475.320313 60.191406 475.453125 59.550781 475.90625 59.207031 C 476.144531 59.023438 476.515625 59.019531 476.757813 58.867188 C 477.675781 58.289063 478.84375 57.261719 479.730469 56.65625 C 480.417969 56.191406 481.09375 55.855469 481.769531 55.46875 C 482.8125 54.867188 484.140625 54.082031 484.746094 53.34375 C 485.886719 52.707031 487.019531 53.3125 488.144531 53.597656 C 488.355469 53.25 488.03125 52.875 488.316406 52.578125 C 488.511719 52.289063 489.230469 52.527344 489.335938 52.152344 C 489.152344 51.628906 488.828125 51.242188 488.742188 50.621094 C 487.25 50.4375 486.339844 48.265625 487.890625 47.816406 C 489.054688 47.480469 490.328125 48.355469 491.207031 49.09375 C 491.839844 49.621094 492.335938 50.550781 493.246094 50.878906 C 493.644531 51.019531 494.070313 50.941406 494.4375 51.046875 C 495.113281 51.238281 495.976563 51.855469 496.304688 52.320313 C 497.617188 54.183594 494.59375 54.636719 493.839844 55.890625 C 495.261719 56.425781 496.765625 56.636719 498.003906 57.25 C 498.34375 57.417969 498.5625 57.753906 498.941406 57.847656 C 499.511719 57.984375 500.28125 58.023438 500.8125 58.015625 C 501.734375 58.003906 502.125 57.386719 502.679688 57.335938 C 503.101563 57.300781 503.585938 57.804688 504.039063 57.761719 C 505.71875 56.851563 505.4375 54.878906 505.484375 53.003906 C 506.078125 52.875 506.699219 52.480469 507.269531 52.578125 C 508.503906 52.785156 509.441406 55.621094 509.308594 57.335938 C 509.28125 57.6875 509.0625 58.046875 509.054688 58.441406 C 509.042969 59.210938 509.582031 59.863281 509.648438 60.652344 C 509.769531 62.070313 509.230469 63.09375 508.800781 63.964844 C 507.429688 63.589844 505.773438 63.671875 504.378906 63.371094 C 504.0625 63.300781 503.769531 63.042969 503.445313 63.03125 C 503.097656 63.015625 502.707031 63.292969 502.339844 63.285156 C 501.226563 63.265625 500.011719 62.316406 498.855469 61.925781 C 498.65625 61.859375 498.308594 61.914063 498.003906 61.839844 "/>
<path style=" stroke:none;fill-rule:nonzero;fill:rgb(0%,0%,0%);fill-opacity:1;" d="M 376.515625 127.03125 C 375.800781 128.246094 376.636719 129.539063 376.6875 130.976563 C 376.734375 132.253906 376.269531 133.6875 376.175781 135.089844 C 375.914063 138.898438 375.652344 143.136719 375.488281 146.75 C 375.425781 148.097656 376.058594 149.691406 374.800781 150.695313 C 374.207031 143.058594 374.351563 134.6875 373.601563 127.203125 L 376.515625 127.03125 "/>
<g clip-path="url(#clip1)" clip-rule="nonzero">
<path style=" stroke:none;fill-rule:nonzero;fill:rgb(0%,0%,0%);fill-opacity:1;" d="M 333.648438 286.320313 C 334.289063 286.585938 335.476563 287.332031 335.707031 286.152344 C 337.128906 286.773438 338.351563 287.558594 339.992188 287.523438 C 339.972656 288.472656 338.4375 287.90625 338.277344 288.722656 C 337.769531 288.429688 337.113281 288.285156 336.222656 288.378906 C 336.035156 287.9375 335.789063 287.554688 335.363281 287.351563 C 334.582031 287.253906 334.640625 287.996094 333.820313 287.863281 C 333.730469 287.1875 333.066406 286.742188 333.648438 286.320313 Z M 362.972656 230.9375 C 362.4375 231.015625 362.421875 230.574219 362.457031 230.082031 C 362.628906 230.082031 362.800781 230.082031 362.972656 230.082031 C 362.972656 230.367188 362.972656 230.652344 362.972656 230.9375 Z M 361.769531 232.824219 C 361.238281 232.039063 362.46875 231.402344 362.972656 232.140625 C 362.964844 232.761719 362.46875 232.894531 361.769531 232.824219 Z M 361.085938 230.9375 C 360.746094 230.195313 360.789063 228.519531 361.429688 228.195313 C 362.648438 228.242188 362.523438 231.121094 361.085938 230.9375 Z M 310.757813 124.96875 C 306.675781 123.847656 303.066406 123.375 300.042969 122.917969 M 300.042969 122.917969 C 291.445313 121.429688 282.421875 121.816406 273.980469 122.574219 C 260.796875 123.753906 249.082031 128.222656 238.316406 133.546875 C 217.828125 143.679688 202.125 160.433594 192.019531 180.527344 C 184.183594 196.117188 180.359375 214.605469 181.902344 235.910156 C 182.871094 249.265625 187.148438 262.003906 192.363281 272.777344 C 197.355469 283.082031 203.722656 292.878906 211.738281 300.894531 C 219.527344 308.6875 229.40625 315.734375 239.515625 320.445313 C 252.574219 326.527344 265.722656 330.632813 282.210938 331.589844 C 303.480469 332.820313 318.417969 326.304688 333.648438 319.929688 C 333.6875 321.433594 334.9375 322.253906 336.394531 321.816406 C 336.878906 322.414063 336.613281 323.765625 338.109375 323.359375 C 338.128906 322.195313 336.949219 322.230469 336.90625 321.128906 C 337.3125 321.078125 337.226563 320.535156 337.765625 320.613281 C 337.945313 321.007813 337.875 321.648438 338.109375 321.988281 C 339.472656 322.148438 339.914063 322.203125 340.679688 322.84375 C 340.898438 321.558594 341.902344 321.191406 341.023438 320.101563 C 341.710938 319.53125 342.789063 319.351563 343.425781 318.730469 C 343.425781 317.929688 342.277344 318.273438 342.394531 317.355469 C 342.691406 316.910156 343.011719 316.488281 343.765625 316.5 C 343.84375 316.824219 343.535156 317.535156 344.109375 317.355469 C 345.898438 316.574219 347.714844 315.816406 350.109375 315.644531 C 350.605469 316.007813 350.296875 317.171875 350.625 317.699219 C 351.34375 317.84375 351.433594 317.367188 351.996094 317.355469 C 352.027344 316.46875 351.644531 315.992188 351.480469 315.300781 C 352.496094 314.828125 352.914063 313.757813 354.398438 313.757813 C 353.996094 312.417969 354.964844 311.792969 355.253906 310.671875 C 356.191406 310.589844 356.203125 311.4375 357.140625 311.355469 C 357.207031 310.621094 358.058594 310.675781 357.828125 309.640625 C 356.808594 309.539063 356.300781 309.941406 355.253906 309.8125 C 354.507813 309.011719 353.648438 305.664063 355.425781 305.355469 C 355.28125 306.757813 356.136719 308.128906 356.628906 308.953125 C 357.957031 308.488281 356.332031 307.429688 356.453125 306.554688 C 356.96875 306.515625 357.039063 307.1875 357.484375 306.726563 C 357.265625 305.570313 356.292969 305.175781 355.597656 304.496094 C 355.871094 303.855469 356.191406 303.265625 357.140625 303.296875 C 357.621094 303.445313 357.507813 304.1875 357.828125 304.496094 C 362.078125 304.917969 361.558594 300.570313 362.628906 297.8125 C 361.988281 297.5 361.617188 298.210938 360.570313 297.980469 C 360.195313 297.726563 360.089844 297.207031 359.714844 296.953125 C 358.890625 297.03125 357.78125 298.226563 357.3125 297.125 C 357.945313 296.042969 358.429688 294.8125 360.226563 294.894531 C 360.769531 295.382813 360.972656 296.207031 362.285156 295.925781 C 362.40625 294.210938 363.335938 291.679688 362.285156 290.4375 C 361.449219 290.34375 361.621094 291.261719 360.914063 291.296875 C 361.117188 290.578125 360.191406 290.988281 360.054688 290.609375 C 360.105469 289.953125 361.195313 289.6875 360.570313 288.894531 C 359.488281 288.613281 359.808594 289.734375 359.027344 289.75 C 358.609375 288.683594 357.203125 288.601563 356.96875 287.351563 C 357.5 286.796875 357.839844 286.046875 359.027344 286.152344 C 359.628906 285.742188 358.398438 285.332031 359.027344 284.949219 C 359.621094 284.984375 359.273438 285.960938 360.226563 285.636719 C 360.234375 283.976563 360.613281 282.886719 359.371094 282.378906 C 358.421875 282.289063 359.089844 283.808594 357.996094 283.578125 C 358.191406 282.628906 358.367188 281.664063 358.855469 281.007813 C 359.585938 280.9375 360.621094 281.171875 361.085938 280.835938 C 360.960938 280.3125 361.382813 280.332031 361.257813 279.808594 C 360.265625 279.539063 359.304688 279.242188 359.199219 278.09375 C 359.527344 277.847656 359.691406 277.441406 360.226563 277.40625 C 360.820313 276.9375 360.800781 278.226563 361.769531 277.921875 C 361.984375 277.316406 361.484375 276.535156 361.601563 275.863281 C 361.320313 275.511719 360.335938 275.871094 360.054688 275.519531 C 359.949219 274.878906 359.613281 273.644531 360.226563 273.289063 C 360.878906 272.730469 361.210938 273.6875 361.769531 273.289063 C 362.121094 272.726563 361.863281 271.554688 361.941406 270.71875 C 361.644531 270.289063 360.730469 271.15625 360.570313 270.375 C 360.636719 269.695313 362.039063 270.359375 361.941406 269.519531 C 361.222656 268.171875 361.921875 267.957031 361.941406 266.261719 C 361.210938 264.40625 357.214844 263.652344 357.996094 260.945313 C 358.289063 259.945313 359.828125 259.796875 360.398438 258.714844 C 360.570313 257.914063 359.710938 258.148438 359.886719 257.34375 C 360.246094 256.96875 360.644531 257.308594 360.914063 257.515625 C 361.019531 257.160156 360.636719 256.324219 361.257813 256.488281 C 362.339844 257.300781 361.171875 259.535156 362.457031 259.917969 C 364.269531 259.058594 361.902344 257.714844 362.457031 255.972656 C 362.195313 255.378906 360.835938 254.4375 361.769531 253.742188 C 362.015625 254.070313 362.230469 254.945313 362.800781 254.429688 C 362.289063 253.222656 362.40625 250.839844 364 250.65625 C 365.085938 250.53125 368.015625 252.773438 366.914063 254.601563 C 367.378906 254.820313 367.523438 255.363281 368.285156 255.285156 C 369.082031 254.871094 368.046875 253.683594 368.628906 253.058594 C 369.257813 253.34375 368.921875 254.59375 370 254.429688 C 369.824219 251.074219 370.597656 246.636719 368.800781 243.972656 C 369.773438 243.292969 368.855469 242.75 368.628906 241.914063 C 368.765625 241.535156 369.4375 241.6875 369.484375 241.226563 C 367.609375 240.558594 369.660156 238.898438 369.484375 237.453125 C 369.382813 236.613281 368.605469 236.664063 368.457031 235.738281 C 368.789063 235.042969 369.640625 234.863281 369.828125 234.027344 C 369.589844 233.578125 368.855469 233.625 368.972656 232.824219 C 369.042969 232.210938 369.96875 232.449219 370 231.796875 C 370.328125 229.445313 370.195313 228.792969 369.144531 227.167969 C 369.195313 226.761719 369.738281 226.847656 369.65625 226.308594 C 369.453125 225.941406 368.726563 226.097656 368.972656 225.28125 C 369.90625 225.375 370.050781 226.261719 371.371094 225.96875 C 369.828125 223.074219 365.699219 223.078125 361.601563 223.566406 C 361.507813 224.398438 362.328125 224.324219 362.285156 225.109375 C 361.925781 225.378906 361.144531 225.226563 360.742188 225.453125 C 360.40625 227.402344 359.238281 228.519531 357.65625 229.222656 C 356.660156 232.898438 357.957031 235.742188 360.742188 233.167969 C 361.441406 233.609375 362.589844 233.609375 362.972656 234.367188 C 363.050781 235.191406 361.859375 234.742188 361.941406 235.570313 C 361.71875 236.421875 362.46875 236.296875 362.457031 236.941406 C 361.625 237.195313 361.710938 238.363281 360.742188 238.484375 C 359.121094 237.433594 358.703125 239.460938 356.96875 238.824219 C 356.757813 240.273438 355.828125 241 355.425781 242.257813 C 355.394531 243.027344 356.488281 242.679688 356.28125 243.628906 C 356.191406 244.390625 355.632813 244.691406 354.910156 244.828125 C 355.609375 245.785156 354.09375 246.1875 354.738281 247.058594 C 356.128906 247.566406 356.296875 245.886719 357.140625 245.34375 C 359.054688 244.925781 359.589844 246.078125 359.199219 247.058594 C 359.867188 247.191406 360.089844 246.421875 360.570313 246.886719 C 360.910156 248.925781 360.195313 251.285156 359.539063 252.886719 C 359.949219 253.105469 360.472656 253.214844 360.570313 253.742188 C 360.261719 254.117188 359.992188 254.539063 359.199219 254.429688 C 358.785156 254.089844 359.484375 253.613281 359.027344 253.230469 C 358.140625 253.144531 357.785156 252.527344 356.96875 252.371094 C 356.214844 253.546875 356.632813 255.101563 356.28125 255.972656 C 355.484375 255.402344 355.613281 253.898438 354.738281 253.402344 C 355.601563 252.636719 354.851563 251.386719 355.082031 250.484375 C 354.769531 250.113281 354.460938 249.738281 353.710938 249.800781 C 353.011719 252.070313 352.78125 254.234375 351.3125 255.972656 C 351.066406 256.011719 351.472656 256.824219 351.3125 257.34375 C 350.652344 257.429688 350.769531 258.289063 350.109375 258.375 C 350.273438 261.316406 347.421875 262.628906 347.023438 265.574219 C 345.851563 265.984375 345.078125 267.503906 345.652344 268.660156 C 345.367188 268.660156 345.082031 268.660156 344.796875 268.660156 C 344.804688 269.222656 345.28125 269.316406 345.140625 270.03125 C 344.8125 270.105469 344.707031 270.402344 344.28125 270.375 C 343.628906 270.628906 344.246094 269.609375 343.597656 269.863281 C 343.25 270.144531 343.464844 270.988281 342.910156 271.0625 C 342.03125 270.726563 341.8125 270.667969 341.367188 271.40625 C 341.054688 270.972656 341.054688 270.230469 340.339844 270.203125 C 339.921875 270.53125 339.164063 270.515625 339.308594 271.40625 C 339.414063 271.984375 340.523438 271.5625 340.851563 271.917969 C 340.734375 272.609375 341.015625 272.898438 341.023438 273.464844 C 340.292969 273.816406 340.070313 274.679688 339.480469 275.175781 C 339.183594 274.734375 339.457031 273.714844 338.621094 273.804688 C 337.800781 274.011719 338.359375 275.601563 337.421875 275.691406 C 336.851563 275.691406 336.835938 275.132813 336.222656 275.175781 C 336.191406 276.234375 335.027344 276.152344 335.019531 277.234375 C 336.105469 277.757813 335.769531 278.894531 335.707031 280.320313 C 336.707031 280.464844 337.578125 280.734375 337.9375 281.519531 C 337.792969 282.234375 336.554688 281.851563 336.734375 282.894531 C 337.199219 283.296875 337.71875 282.585938 338.109375 283.0625 C 337.988281 284.113281 338.222656 284.921875 338.109375 285.636719 C 337.164063 285.558594 336.976563 285.847656 336.050781 285.292969 C 335.753906 286.226563 334.925781 285.542969 334.164063 285.636719 C 333.3125 285.285156 333.421875 283.980469 332.621094 283.578125 C 331.652344 284.382813 333.292969 285.589844 332.277344 286.320313 C 331.503906 286.351563 331.285156 285.832031 330.90625 285.464844 C 330.828125 284.8125 331.351563 284.246094 330.90625 283.75 C 329.863281 283.675781 329.980469 284.765625 329.019531 284.777344 C 328.355469 283.761719 328.046875 283.292969 327.136719 282.722656 C 326.171875 282.617188 326.273438 283.578125 325.421875 283.578125 C 325.328125 284.355469 326.335938 284.035156 326.277344 284.777344 C 326.003906 285.359375 326.042969 286.257813 325.25 286.320313 C 323.882813 284.582031 321.109375 285.367188 319.933594 286.835938 C 320.335938 287.519531 319.914063 289.023438 320.789063 289.238281 C 321.929688 288.949219 321.777344 287.367188 323.535156 287.695313 C 323.667969 288.074219 323.894531 288.363281 323.878906 288.894531 C 322.238281 288.988281 321.132813 290.589844 319.246094 290.953125 C 319.605469 289.5625 318.164063 289.976563 318.046875 289.066406 C 318.066406 288.113281 319.300781 288.375 319.246094 287.351563 C 318.710938 286.289063 318.226563 287.84375 317.703125 287.695313 C 316.835938 287.449219 316.976563 286.132813 316.160156 285.292969 C 314.898438 285.300781 315.347656 286.960938 315.644531 287.695313 C 315.46875 288.199219 314.777344 288.195313 314.960938 289.066406 C 316.546875 289.023438 316.683594 290.429688 317.875 290.78125 C 317.757813 291.292969 317.191406 291.355469 316.503906 291.296875 C 316.351563 291.902344 316.945313 292.179688 316.332031 292.324219 C 314.480469 291.75 311.804688 291.171875 309.644531 291.464844 C 310.097656 292.730469 312.085938 292.476563 312.902344 292.492188 C 312.921875 293.316406 312.4375 293.628906 311.875 293.867188 C 311.480469 293.058594 310.824219 292.515625 309.472656 292.667969 C 309.289063 293.96875 311.519531 294.1875 310.332031 295.410156 C 309.285156 295.648438 309.085938 294.34375 308.445313 294.722656 C 307.945313 295.199219 309.261719 295.664063 308.445313 296.097656 C 299.460938 298.449219 291.230469 299.804688 281.523438 299.351563 C 280.871094 299.324219 280.023438 299.230469 279.296875 299.183594 C 251.855469 297.28125 231.261719 280.488281 220.996094 259.574219 C 216.074219 249.546875 212.671875 238.867188 213.453125 225.109375 C 215.195313 194.5 230.40625 172.957031 252.890625 161.839844 C 260.488281 158.082031 269.648438 154.933594 278.953125 154.292969 C 293.308594 153.308594 305.378906 156.132813 315.644531 160.46875 C 327.050781 165.28125 335.078125 172.605469 342.222656 181.214844 C 344.691406 184.191406 347.074219 187.03125 348.910156 190.300781 C 352.746094 197.140625 355.117188 205.144531 356.28125 214.476563 C 357.09375 214.757813 357.789063 215.144531 357.996094 216.019531 C 359.171875 215.652344 359.742188 214.675781 360.226563 213.621094 C 359.398438 212.90625 358.113281 212.648438 357.828125 211.390625 C 358.714844 210.5625 359.980469 210.113281 359.714844 208.132813 C 360.96875 208.132813 360.632813 206.539063 361.769531 206.417969 C 362.652344 207.195313 362.972656 208.621094 364.171875 208.820313 C 365.769531 209.085938 366.496094 207.597656 367.769531 206.933594 C 368.125 206.980469 368.113281 207.394531 368.285156 207.621094 C 367.992188 209.398438 364.730469 209.078125 365.027344 210.878906 C 365.734375 211.058594 366.152344 210.070313 366.570313 210.535156 C 366.441406 211.148438 366.175781 211.625 365.542969 211.734375 C 364.71875 211.875 364.925781 210.980469 364 211.222656 C 363.546875 211.910156 362.867188 212.375 362.628906 213.277344 C 363.25 213.972656 363.898438 214.632813 364.34375 215.507813 C 364.996094 213.246094 366.886719 212.21875 368.113281 210.535156 C 369.355469 213.28125 373.03125 213.96875 372.058594 218.421875 C 371.554688 218.660156 371.410156 219.257813 370.6875 219.277344 C 370.066406 219.214844 370.257813 218.339844 369.316406 218.59375 C 369.238281 219.769531 369.160156 221.550781 370.6875 221.851563 C 371.121094 222.160156 370.515625 223.507813 371.199219 223.566406 C 371.546875 223.054688 371.910156 222.5625 371.886719 221.679688 C 371.652344 221.253906 370.519531 221.113281 371.027344 220.480469 C 371.277344 219.609375 371.941406 220.730469 372.230469 220.308594 C 373.777344 216.550781 372.058594 212.386719 371.542969 208.304688 C 371.289063 207.761719 370.613281 207.636719 370.34375 207.105469 C 370.585938 205.949219 369.90625 205.714844 369.828125 204.875 C 371.679688 203.671875 370.320313 199.90625 369.316406 198.875 C 369.378906 198.480469 370.066406 198.710938 370 198.1875 C 369.671875 197.773438 369.894531 196.8125 369.828125 196.132813 C 368.769531 192.871094 364.546875 189.90625 363.3125 186.1875 C 362.511719 183.765625 363.484375 179.355469 363.65625 175.898438 C 363.734375 174.359375 363.472656 173.394531 364.34375 172.8125 C 364.773438 176.691406 363.667969 181.382813 364.171875 185.328125 C 364.769531 185.859375 365.800781 184.917969 366.058594 185.671875 C 364.890625 187.007813 366.664063 188.476563 367.257813 189.617188 C 369.269531 185.796875 370.140625 179.921875 372.402344 176.925781 C 372.503906 178.710938 370.019531 183.164063 372.570313 183.273438 C 373.855469 183.328125 373.050781 181.976563 374.460938 181.898438 C 375.382813 182.804688 374.796875 185.222656 375.316406 186.53125 C 373.6875 187.636719 370.808594 187.535156 370.6875 185.5 C 370.625 184.4375 371.933594 184.238281 371.199219 182.929688 C 369.492188 185.105469 369.589844 189.089844 368.457031 191.847656 C 368.761719 192.742188 370.082031 192.621094 370.859375 193.046875 C 371.5625 194.570313 372.570313 195.789063 373.429688 197.160156 C 373.976563 197.1875 374.691406 197.5625 375.144531 197.160156 C 374.855469 196.003906 374.574219 194.847656 375.828125 194.589844 C 376.515625 195.21875 377.179688 195.871094 377.375 196.988281 C 377.507813 197.695313 376.554688 197.3125 376.6875 198.019531 C 377.035156 198.472656 377.765625 198.539063 377.71875 199.390625 C 376.199219 202.171875 379.910156 203.382813 381.316406 204.875 C 382.882813 203.097656 379.933594 201.945313 379.773438 199.5625 C 380.421875 199.234375 380.695313 200.601563 380.804688 199.734375 C 380.550781 199.300781 379.941406 199.222656 380.117188 198.359375 C 381.628906 198.523438 382.011719 198.242188 383.71875 198.53125 C 383.644531 199.40625 383.980469 199.871094 384.230469 200.417969 C 383.070313 200.550781 384.054688 201.832031 382.6875 201.617188 C 383.777344 203.242188 382.644531 205.507813 380.976563 205.90625 C 379.714844 204.476563 378.308594 203.199219 376.515625 202.304688 C 376.074219 202.871094 376.542969 203.675781 376.515625 204.363281 C 376.15625 204.734375 376.027344 204.277344 375.488281 204.363281 C 374.730469 205.328125 374.988281 206.355469 374.800781 207.449219 C 374.773438 207.605469 374.34375 207.894531 374.285156 208.304688 C 374.207031 208.890625 374.789063 208.625 374.460938 209.164063 C 373.9375 210.007813 373.308594 209.484375 373.089844 210.363281 C 372.957031 210.882813 373.414063 214.910156 373.601563 215.851563 C 373.75 216.605469 374.371094 216.992188 374.285156 217.738281 C 374.199219 218.542969 373.21875 218.871094 372.914063 219.621094 C 372.304688 221.144531 372.691406 222.609375 372.230469 223.910156 C 373.308594 224.632813 375.226563 224.859375 376.003906 223.738281 C 376.101563 223.277344 375.496094 222.664063 376.003906 222.367188 C 376.648438 222.347656 376.925781 222.699219 377.03125 223.222656 C 375.425781 224.636719 376.027344 227.640625 378.230469 228.023438 C 377.992188 228.527344 377.394531 228.671875 377.375 229.394531 C 377.277344 231.222656 379.621094 231.582031 379.433594 232.996094 C 379.296875 234.007813 377.945313 233.640625 377.203125 234.367188 C 376.320313 235.234375 376.929688 236.214844 376.003906 236.941406 C 375.96875 237.773438 377.164063 237.378906 377.03125 238.3125 C 377.011719 238.691406 376.304688 238.386719 376.003906 238.484375 C 375.875 239.066406 376.632813 238.765625 376.6875 239.167969 C 376.109375 239.398438 375.691406 240.488281 376.175781 241.226563 C 376.476563 241.792969 376.898438 241.175781 377.203125 241.742188 C 377.359375 242.816406 376.996094 243.363281 376.859375 244.144531 C 378.617188 244.132813 377.457031 246.074219 378.746094 246.371094 C 378.738281 247.109375 377.835938 246.945313 378.058594 247.914063 C 378.542969 248.230469 379.34375 248.230469 379.433594 248.941406 C 378.222656 250.328125 379.898438 252.019531 379.261719 253.742188 C 378.574219 253.859375 378.085938 254.167969 377.546875 254.429688 C 377.742188 255.769531 377.195313 256.367188 377.03125 257.34375 C 377.425781 257.847656 378.1875 258.367188 378.917969 258.03125 C 379.113281 256.769531 379.011719 256.203125 378.746094 255.113281 C 379.699219 255.214844 380.382813 255.039063 380.804688 254.601563 C 380.84375 253.535156 380.097656 253.25 380.289063 252.03125 C 380.488281 251.214844 382.015625 251.386719 382.519531 250.144531 C 383.386719 247.988281 381.796875 245.757813 380.117188 247.058594 C 379.976563 245.914063 378.976563 244.808594 379.605469 243.457031 C 380.351563 243.324219 380.542969 244.316406 381.144531 243.800781 C 381.703125 242.675781 380.011719 242.457031 380.460938 240.882813 C 381.144531 240.773438 381.148438 241.335938 381.832031 241.226563 C 381.902344 240.414063 381.582031 239.988281 381.488281 239.339844 C 380.796875 239.0625 379.761719 239.125 379.605469 238.3125 C 380.109375 237.621094 381.59375 237.902344 382.347656 237.453125 C 381.261719 235.46875 380.378906 233.488281 381.144531 230.425781 C 380.699219 230.070313 379.753906 230.214844 379.433594 229.738281 C 379.453125 229.246094 379.339844 228.617188 379.605469 228.367188 C 380.074219 228.578125 380.472656 228.867188 381.144531 228.882813 C 381.105469 227.871094 381.539063 227.210938 381.832031 226.136719 C 381.238281 225.929688 380.605469 225.765625 379.773438 225.796875 C 379.773438 225.394531 379.773438 224.996094 379.773438 224.59375 C 379.050781 224.347656 377.9375 224.488281 377.890625 223.566406 C 377.988281 223.152344 378.535156 223.183594 378.917969 223.050781 C 378.425781 221.882813 377.542969 221.109375 377.03125 219.964844 C 377.222656 219.929688 377.296875 219.773438 377.375 219.621094 C 378.175781 219.90625 378.394531 220.773438 379.605469 220.652344 C 379.839844 219.457031 380.714844 218.902344 381.660156 218.421875 C 381.949219 218.761719 382.457031 218.882813 383.03125 218.9375 C 383.46875 218.515625 383.644531 217.835938 383.546875 216.878906 C 384.945313 216.617188 385.363281 214.46875 387.148438 215.164063 C 387.480469 216.582031 386.335938 216.523438 386.460938 217.738281 C 387.054688 218.15625 388.097656 218.15625 388.691406 217.738281 C 388.992188 216.726563 387.605469 216.761719 388.175781 216.019531 C 388.429688 215.933594 388.609375 215.769531 388.863281 215.679688 C 389.429688 216.519531 390.429688 217.054688 391.433594 216.191406 C 391.660156 213.105469 392.382813 210.511719 393.148438 207.960938 C 392.308594 207.351563 391.285156 208.617188 390.40625 207.960938 C 390.359375 207.285156 391.136719 207.4375 391.089844 206.761719 C 390.800781 206.425781 390.226563 206.367188 390.40625 205.5625 C 390.730469 205.488281 390.714844 205.070313 391.261719 205.21875 C 391.835938 205.960938 392.238281 206.871094 393.320313 207.105469 C 394.710938 203.753906 395.460938 199.757813 397.09375 196.644531 C 396.839844 196.5 396.722656 196.214844 396.75 195.789063 C 396.378906 195.417969 395.203125 195.847656 395.035156 195.273438 C 395.003906 194.191406 395.929688 193.835938 396.40625 194.589844 C 396.644531 194.257813 396.5 193.539063 397.265625 193.730469 C 397.882813 194.371094 396.699219 195.035156 397.265625 195.617188 C 398.4375 195.457031 398.152344 194.371094 398.464844 193.730469 C 400.964844 188.578125 404.707031 183.488281 408.410156 178.984375 C 412.125 174.464844 416.765625 170.601563 421.441406 167.324219 C 433.007813 159.21875 447.230469 153.070313 466.191406 153.953125 C 486.445313 154.894531 500.238281 162.871094 513.34375 174.871094 C 525.050781 185.585938 533.46875 201.484375 534.605469 219.109375 C 534.945313 224.382813 535.222656 231.378906 534.605469 236.425781 C 532.558594 253.21875 525.007813 267.878906 513.6875 278.433594 C 505.371094 286.191406 496.570313 292.976563 484.367188 296.4375 C 472.296875 299.863281 455.460938 300.738281 443.214844 296.609375 C 443.617188 295.8125 444.371094 295.363281 444.589844 294.382813 C 443.777344 293.820313 441.523438 294.703125 440.988281 293.867188 C 441.144531 292.710938 441.859375 292.109375 441.84375 290.78125 C 442.53125 290.753906 443.335938 291.21875 443.902344 290.78125 C 444.234375 289.648438 443.035156 290.046875 442.871094 289.40625 C 443.742188 288.90625 443.925781 287.71875 444.929688 287.351563 C 445.457031 287.566406 445.128906 288.636719 445.960938 288.550781 C 446.042969 287.605469 446.550781 287.082031 446.644531 286.152344 C 445.351563 285.105469 443.867188 286.324219 443.214844 287.007813 C 442.019531 285.449219 439.4375 285.90625 437.558594 285.636719 C 437.019531 285.558594 436.707031 285.222656 436.1875 285.292969 C 434.460938 285.53125 433.601563 288.128906 431.558594 287.523438 C 430.878906 287.171875 431.128906 286.339844 430.355469 285.636719 C 429.828125 285.152344 429.164063 285.34375 428.472656 284.949219 C 427.695313 284.511719 427.300781 283.5 426.410156 283.578125 C 425.550781 283.652344 425.175781 284.777344 424.527344 285.464844 C 424.828125 285.621094 425.058594 285.847656 425.214844 286.152344 C 426.269531 286.246094 426.664063 284.921875 427.441406 285.292969 C 428.898438 286.664063 426.394531 287.382813 425.554688 288.035156 C 425.214844 287.917969 425.660156 287.015625 425.039063 287.179688 C 424.277344 287.046875 424.703125 288.101563 424.011719 288.035156 C 422.976563 287.359375 421.660156 286.957031 420.925781 285.980469 C 421.28125 284.960938 421.945313 284.253906 422.8125 283.75 C 423.257813 283.988281 423.210938 284.722656 424.011719 284.605469 C 424.183594 284.378906 424.296875 284.089844 424.527344 283.921875 C 423.460938 283.234375 423.527344 282.460938 422.984375 281.351563 C 422.0625 281.578125 421.722656 283.285156 420.410156 282.550781 C 421.039063 281.132813 421.773438 279.96875 421.441406 278.433594 C 421.894531 277.917969 423.175781 278.226563 423.839844 277.921875 C 423.839844 277.578125 423.839844 277.234375 423.839844 276.890625 C 421.585938 275.945313 419.394531 277.285156 419.039063 279.292969 C 417.988281 279.316406 417.472656 278.800781 417.496094 277.75 C 417.628906 277.140625 418.660156 277.425781 418.695313 276.71875 C 417.222656 276.308594 415.734375 275.910156 414.066406 275.691406 C 413.273438 274.429688 411.265625 274.378906 409.09375 274.492188 C 409.269531 275.402344 410.125 275.632813 410.980469 275.863281 C 410.886719 276.28125 410.835938 276.746094 410.296875 276.71875 C 408.230469 275.296875 407.601563 272.441406 405.492188 271.0625 C 405.222656 272.246094 404.007813 271.714844 403.4375 272.777344 C 403.492188 271.691406 402.175781 271.976563 402.234375 270.890625 C 402.546875 270.183594 402.96875 270.503906 403.609375 270.71875 C 403.292969 269.277344 404.652344 270.546875 404.636719 269.519531 C 403.121094 266.898438 401.351563 264.9375 399.835938 262.144531 C 398.980469 260.566406 398.136719 258.816406 397.265625 257.003906 C 395.59375 253.527344 393.089844 249.191406 393.148438 245.855469 C 393.183594 243.914063 394.542969 242.148438 394.347656 240.027344 C 393.6875 239.257813 392.25 239.269531 390.921875 239.167969 C 388.429688 236.019531 389.222656 231.628906 388.863281 226.308594 C 389.027344 226.132813 389.199219 225.960938 389.375 225.796875 C 388.90625 224 390.195313 222.972656 390.40625 221.335938 C 389.210938 221.410156 388.84375 220.765625 388.003906 220.136719 C 386.742188 220.1875 385.136719 219.894531 384.574219 220.652344 C 384.078125 220.292969 384.074219 219.4375 383.203125 219.449219 C 382.800781 219.503906 382.820313 219.980469 382.519531 220.136719 C 382.292969 220.875 383.335938 220.351563 383.203125 220.992188 C 382.960938 221.949219 382.285156 222.476563 382.175781 223.566406 C 382.644531 223.953125 384.011719 223.445313 384.0625 224.25 C 384.0625 224.9375 384.0625 225.625 384.0625 226.308594 C 385.921875 227.421875 384.691406 229.703125 384.917969 231.625 C 383.949219 232.199219 383.011719 232.800781 382.519531 233.855469 C 383.527344 234.503906 384.003906 235.683594 384.230469 237.109375 C 383.273438 237.667969 381.945313 238.585938 382.859375 240.027344 C 383.859375 239.996094 385.132813 240.242188 385.433594 239.511719 C 385.765625 240.152344 385.917969 240.96875 386.632813 241.226563 C 386.390625 241.554688 386.234375 241.972656 386.117188 242.425781 C 386.929688 243.578125 387.507813 244.085938 387.832031 245.855469 C 385.785156 246.496094 385.007813 248.402344 384.746094 250.828125 C 384.96875 251.464844 385.824219 251.46875 386.289063 251.859375 C 386.660156 252.6875 386.660156 253.890625 386.632813 255.113281 C 386.179688 255.40625 385.542969 255.511719 385.089844 255.800781 C 384.160156 255.1875 384.535156 253.269531 383.890625 252.371094 C 383.433594 252.375 382.910156 252.308594 382.6875 252.542969 C 382.585938 253.335938 383.074219 253.53125 383.03125 254.257813 C 382.175781 255.402344 378.492188 260.9375 382.519531 260.089844 C 382.597656 259.480469 382.238281 258.4375 383.03125 258.546875 C 384.003906 258.429688 383.519531 259.769531 383.890625 260.257813 C 384.925781 260.265625 386.03125 260.34375 386.632813 259.917969 C 385.9375 258.441406 386.792969 257.449219 387.832031 256.832031 C 388.191406 258.828125 387.691406 260.300781 388.175781 261.976563 C 387.59375 262.761719 385.519531 262.058594 385.605469 263.515625 C 386.394531 264.09375 386.625 262.894531 387.660156 263.175781 C 387.96875 264.742188 387.5625 266.417969 387.832031 268.148438 C 388.308594 268.6875 388.839844 268.144531 389.375 268.488281 C 388.9375 269.902344 390.894531 268.917969 390.574219 270.203125 C 389.660156 271.039063 387.972656 269.25 387.660156 270.546875 C 387.460938 271.492188 389.015625 270.679688 389.03125 271.40625 C 388.933594 271.839844 388.347656 272.242188 388.691406 272.605469 C 389.0625 273.316406 389.917969 273.550781 390.921875 273.632813 C 391.269531 273.015625 391.1875 271.957031 391.777344 271.574219 C 393.34375 271.382813 393.527344 274.203125 392.976563 275.003906 C 392.027344 275.152344 392.308594 274.074219 391.433594 274.148438 C 390.554688 274.355469 389.53125 274.417969 389.546875 275.519531 C 390.265625 275.773438 391.398438 275.613281 391.433594 276.546875 C 392.480469 276.261719 393.15625 276.570313 393.320313 277.578125 C 393.332031 278.390625 391.855469 277.714844 391.949219 278.605469 C 393.117188 278.296875 393.035156 279.234375 392.976563 280.148438 C 396.824219 281.226563 392.210938 284.566406 392.289063 286.492188 C 391.695313 286.175781 391.113281 285.84375 390.921875 285.121094 C 392.917969 284.890625 392.4375 282.179688 393.664063 281.179688 C 392.851563 280.15625 389.777344 281.988281 389.375 280.320313 C 390.957031 280.128906 390.359375 277.761719 391.777344 277.40625 C 390.398438 277.128906 389.546875 276.324219 388.347656 275.863281 C 387.941406 276.316406 387.394531 276.625 386.632813 276.71875 C 386.578125 277.351563 386.777344 278.238281 386.460938 278.605469 C 384.226563 278.714844 382.238281 279.070313 382.003906 281.179688 C 382.140625 281.785156 382.894531 281.773438 383.203125 282.207031 C 383.125 284.015625 381.859375 284.636719 381.144531 285.808594 C 381.058594 286.523438 382.042969 286.167969 382.003906 286.835938 C 381.699219 287.160156 381.878906 287.96875 381.832031 288.550781 C 382.519531 288.609375 382.78125 288.246094 383.546875 288.378906 C 383.8125 288.914063 383.570313 289.957031 384.0625 290.265625 C 385.632813 290.464844 385.878906 289.339844 386.632813 288.722656 C 386.789063 287.824219 385.792969 288.078125 385.945313 287.179688 C 386.1875 286.90625 386.792969 286.996094 386.976563 286.664063 C 386.9375 285.90625 386.652344 285.425781 387.316406 285.121094 C 387.675781 285.507813 388.085938 285.839844 388.691406 285.980469 C 389.191406 285.21875 387.476563 285.429688 387.832031 284.265625 C 388.878906 284.46875 389.222656 284.878906 389.890625 285.121094 C 389.519531 286.652344 390.554688 288.359375 389.890625 289.066406 C 389.164063 288.820313 389.289063 287.722656 389.03125 287.007813 C 388.425781 287.027344 387.652344 286.882813 387.660156 287.523438 C 387.046875 288.09375 388.335938 288.210938 388.003906 289.066406 C 387.453125 289.714844 386.5625 290.027344 385.945313 290.609375 C 385.730469 293.480469 389.539063 293.992188 387.660156 296.953125 C 387.128906 297.011719 386.84375 296.554688 386.460938 296.953125 C 385.777344 298.3125 387.648438 297.863281 387.316406 299.351563 C 388.105469 299.523438 388.382813 298.617188 389.03125 299.183594 C 388.957031 300.140625 388.496094 300.164063 388.519531 300.894531 C 387.808594 300.636719 387.746094 299.726563 386.976563 299.523438 C 387.074219 301.371094 387.25 303.136719 387.660156 304.667969 C 388.550781 304.585938 389.789063 304.855469 390.40625 304.496094 C 390.101563 303.144531 389.027344 302.558594 388.691406 301.238281 C 389.289063 301.328125 389.324219 300.867188 390.0625 300.726563 C 390.148438 302.207031 391.230469 303.34375 392.464844 304.15625 C 392.390625 303.292969 392.371094 302.339844 393.492188 301.925781 C 394.066406 302.863281 392.554688 304.195313 393.492188 305.355469 C 394.367188 305.375 394.351563 304.5 395.035156 304.324219 C 395.5625 304.714844 396.527344 304.660156 396.921875 305.183594 C 396.949219 305.957031 397.003906 306.753906 396.234375 306.726563 C 395.878906 306.453125 396.339844 305.363281 395.550781 305.527344 C 395.121094 305.5 395.019531 305.796875 394.691406 305.867188 C 394.777344 306.867188 395.59375 307.140625 396.40625 307.410156 C 403.425781 313.84375 412.445313 318.726563 421.953125 322.84375 C 431.503906 326.976563 442.753906 330.503906 454.703125 331.246094 C 476.800781 332.617188 494.90625 328.132813 509.742188 320.613281 C 519.941406 315.449219 528.679688 308.539063 536.835938 300.382813 C 553.023438 284.191406 565.171875 261.816406 566.671875 235.570313 C 566.910156 231.394531 567.019531 227.792969 566.84375 223.910156 C 565.429688 192.789063 554.855469 170.601563 536.664063 152.410156 C 518.132813 133.875 490.949219 119.242188 453.332031 122.230469 C 435.597656 123.640625 420.910156 129.933594 408.066406 137.660156 C 395.265625 145.363281 384.753906 155.691406 377.03125 167.496094 C 375.941406 166.527344 376.578125 163.835938 375.488281 162.867188 C 374.886719 165.125 374.59375 167.691406 374.117188 170.070313 C 374.1875 170.625 375.234375 170.207031 374.972656 171.097656 C 374.984375 171.683594 374.46875 171.738281 374.117188 171.957031 C 367.398438 160.160156 357.992188 150.667969 347.539063 142.632813 C 344.824219 140.550781 342.027344 138.601563 339.113281 136.785156 C 329.761719 131.582031 317.910156 127.183594 310.757813 124.96875 "/>
</g>
<path style=" stroke:none;fill-rule:nonzero;fill:rgb(0%,0%,0%);fill-opacity:1;" d="M 172.472656 258.03125 C 171.90625 257.167969 171.414063 256.234375 170.929688 255.285156 C 172.945313 254.054688 171.898438 249.210938 170.757813 247.570313 C 172.132813 245.054688 173.234375 238.582031 170.074219 237.28125 C 172.269531 236.191406 171.683594 235.058594 171.101563 232.308594 C 170.523438 229.589844 170.1875 227.710938 168.699219 226.824219 C 168.910156 226.058594 169.144531 225.324219 169.214844 224.421875 C 167.03125 223.75 163.308594 224.613281 161.84375 223.222656 C 164 223.148438 165.699219 222.625 167.84375 222.539063 C 168.023438 221.496094 166.089844 221.667969 166.644531 220.824219 C 167.613281 220.824219 168.585938 220.824219 169.558594 220.824219 C 170.664063 219.753906 171.621094 218.542969 172.132813 216.878906 C 171.179688 215.503906 171.691406 213.167969 171.789063 211.050781 C 172.050781 205.246094 172.242188 197.472656 171.960938 192.359375 C 171.894531 191.175781 171.332031 190.113281 171.101563 189.101563 C 170.90625 188.496094 170.078125 188.523438 169.902344 187.902344 C 171.152344 187.210938 171.433594 185.546875 172.300781 184.472656 C 171.910156 183.664063 171.097656 183.277344 170.929688 182.242188 C 171.570313 181.796875 171.808594 180.949219 172.472656 180.527344 C 172.269531 161.6875 171.78125 142.253906 172.132813 123.429688 C 156.414063 123.429688 140.695313 123.429688 124.980469 123.429688 C 124.5 134.382813 124.652344 145.96875 124.292969 157.039063 C 128.179688 157.496094 132.65625 157.363281 136.980469 157.382813 C 137.320313 160.296875 137.144531 163.734375 137.496094 166.640625 C 136.132813 168.585938 136.996094 170.734375 136.121094 172.640625 C 136.058594 173.277344 136.816406 173.089844 136.636719 173.84375 C 135.585938 174.882813 135.574219 176.773438 136.980469 177.441406 C 136.554688 179.914063 138.230469 184.636719 134.578125 185.328125 C 134.847656 186.179688 135.886719 186.414063 136.121094 187.558594 C 136.273438 188.296875 135.75 188.96875 135.78125 189.789063 C 135.839844 191.339844 136.6875 192.894531 136.464844 194.589844 C 136.433594 194.824219 135.992188 195.125 135.953125 195.273438 C 135.785156 195.867188 136.300781 196.417969 135.78125 196.816406 C 136.328125 197.527344 137.046875 198.066406 137.324219 199.046875 C 135.773438 200.773438 137.699219 204.3125 136.636719 206.589844 C 134.679688 206.703125 135.15625 209.328125 135.4375 210.363281 C 134.949219 210.394531 135.101563 209.785156 134.40625 210.019531 C 135.441406 212.304688 131.605469 212.089844 131.148438 213.964844 C 130.546875 213.339844 129.59375 213.980469 128.921875 213.621094 C 128.578125 212.941406 129.175781 212.144531 128.40625 211.734375 C 127.550781 211.90625 126.863281 212.25 126.007813 212.421875 C 125.984375 214.660156 129.816406 214.128906 128.40625 216.707031 C 127.082031 216.808594 125.179688 216.335938 125.148438 217.738281 C 126.03125 217.910156 126.644531 217.171875 127.207031 217.566406 C 127.652344 218.207031 128.007813 218.9375 128.75 219.277344 C 127.929688 220.101563 128.550781 220.9375 128.921875 221.851563 C 130.117188 222.429688 131.421875 222.894531 132.695313 223.394531 C 132.589844 224.699219 133.9375 224.550781 134.578125 225.109375 C 134.507813 226.121094 133.992188 226.691406 133.722656 227.511719 C 131.714844 227.308594 129.355469 227.316406 127.378906 227.167969 C 126.398438 227.09375 125.261719 226.527344 124.808594 227.339844 C 127.609375 228.132813 130.851563 228.496094 133.722656 229.222656 C 133.535156 230.003906 133.050781 230.417969 133.378906 231.28125 C 133.898438 231.621094 134.914063 231.464844 135.265625 231.96875 C 135.320313 233.101563 134.058594 233.464844 134.578125 234.539063 C 134.121094 234.765625 133.1875 234.519531 133.378906 235.398438 C 133.296875 236.625 135.507813 235.554688 135.265625 236.941406 C 134.90625 237.945313 134.054688 237.066406 133.207031 237.109375 C 132.398438 238.816406 130.6875 237.863281 129.949219 236.769531 C 129.488281 237.050781 129.136719 237.4375 128.921875 237.96875 C 129.578125 239.367188 131.707031 239.300781 132.179688 240.882813 C 132.488281 241.9375 131.308594 241.496094 131.492188 242.425781 C 131.488281 243.558594 132.378906 244.371094 132.179688 245.171875 C 131.644531 245.167969 131.0625 244.765625 130.636719 245.171875 C 131.019531 245.816406 131.292969 246.570313 131.148438 247.742188 C 132.082031 248.46875 133.0625 249.144531 133.035156 250.828125 C 133.722656 251.058594 134.421875 251.273438 134.75 251.859375 C 134.097656 253.648438 134.433594 256.21875 135.78125 257.003906 C 135.78125 257.574219 135.78125 258.144531 135.78125 258.714844 C 136.128906 259.28125 137.082031 259.246094 137.152344 260.089844 C 136.371094 260.816406 136.8125 261.75 136.980469 262.832031 C 136.535156 263.929688 135.320313 264.257813 135.09375 265.574219 C 135.347656 265.953125 136.453125 265.472656 136.464844 266.089844 C 137.59375 270.675781 137.152344 277.375 137.152344 283.40625 C 137.152344 298.285156 137.152344 313.554688 137.152344 327.988281 C 147.996094 327.878906 161.082031 327.734375 172.132813 327.816406 C 172.328125 308.003906 172.183594 287.152344 172.472656 267.976563 C 171.996094 267.195313 171.359375 266.574219 170.929688 265.746094 C 171.273438 265.117188 172.171875 265.042969 172.300781 264.203125 C 171.652344 262.578125 172.945313 260.554688 172.472656 258.03125 "/>
<path style=" stroke:none;fill-rule:nonzero;fill:rgb(0%,0%,0%);fill-opacity:1;" d="M 358.339844 144.691406 C 360.226563 146.691406 361.253906 149.554688 363.65625 151.035156 C 363.015625 148.019531 361.289063 146.085938 360.398438 143.320313 C 359.453125 143.519531 358.722656 143.929688 358.339844 144.691406 "/>
<path style=" stroke:none;fill-rule:nonzero;fill:rgb(0%,0%,0%);fill-opacity:1;" d="M 383.375 143.835938 C 382.453125 147.203125 380.808594 149.84375 379.773438 153.09375 C 381.871094 150.789063 384.375 148.894531 383.890625 144.007813 C 383.671875 143.996094 383.652344 143.785156 383.375 143.835938 "/>
<path style=" stroke:none;fill-rule:nonzero;fill:rgb(0%,0%,0%);fill-opacity:1;" d="M 369.65625 144.007813 C 368.769531 144.089844 367.53125 143.820313 366.914063 144.179688 C 367.296875 145.167969 367.1875 146.652344 367.429688 147.777344 C 368.867188 147.21875 369.832031 146.183594 369.65625 144.007813 "/>
<path style=" stroke:none;fill-rule:nonzero;fill:rgb(0%,0%,0%);fill-opacity:1;" d="M 375.488281 158.066406 C 374.285156 157.953125 373.441406 159.105469 372.402344 158.582031 C 372.964844 157.375 374.074219 156.707031 374.460938 155.324219 C 370.847656 155.445313 369.972656 151.929688 368.113281 150.867188 C 369.882813 156.527344 371.476563 162.367188 373.601563 167.667969 C 374.179688 164.417969 374.917969 161.324219 375.488281 158.066406 "/>
<path style=" stroke:none;fill-rule:nonzero;fill:rgb(0%,0%,0%);fill-opacity:1;" d="M 366.570313 155.835938 C 366.195313 157.046875 366.933594 158.535156 367.941406 158.925781 C 367.515625 157.867188 367.609375 156.285156 366.570313 155.835938 "/>
<path style=" stroke:none;fill-rule:nonzero;fill:rgb(0%,0%,0%);fill-opacity:1;" d="M 378.402344 158.582031 C 378.363281 159.363281 378.691406 159.777344 378.917969 160.296875 C 380.105469 160.226563 379.628906 158.226563 378.402344 158.582031 "/>
<path style=" stroke:none;fill-rule:nonzero;fill:rgb(0%,0%,0%);fill-opacity:1;" d="M 371.027344 196.644531 C 371.082031 197.328125 370.632813 197.507813 370.6875 198.1875 C 371.375 198.308594 371.664063 198.023438 372.230469 198.019531 C 372.191406 197.199219 371.96875 196.566406 371.027344 196.644531 "/>
<path style=" stroke:none;fill-rule:nonzero;fill:rgb(0%,0%,0%);fill-opacity:1;" d="M 348.738281 210.878906 C 345.171875 209.90625 341.066406 208.605469 337.765625 207.789063 C 338.109375 208.875 338.679688 209.734375 339.480469 210.363281 C 343.421875 211.164063 347.75 211.582031 351.824219 212.25 C 351.457031 210.972656 349.8125 211.167969 348.738281 210.878906 "/>
<path style=" stroke:none;fill-rule:nonzero;fill:rgb(0%,0%,0%);fill-opacity:1;" d="M 398.464844 222.878906 C 396.992188 223.523438 395.082031 223.726563 394.347656 225.109375 C 396.632813 224.9375 398.621094 224.464844 400.691406 224.082031 C 401.5625 222.433594 402.617188 220.976563 403.265625 219.109375 C 401.382813 220.085938 399.015625 220.574219 398.464844 222.878906 "/>
<path style=" stroke:none;fill-rule:nonzero;fill:rgb(0%,0%,0%);fill-opacity:1;" d="M 125.835938 219.621094 C 125.125 219.171875 124.089844 219.640625 124.121094 220.480469 C 124.832031 220.933594 125.867188 220.460938 125.835938 219.621094 "/>
<path style=" stroke:none;fill-rule:nonzero;fill:rgb(0%,0%,0%);fill-opacity:1;" d="M 346.511719 228.539063 C 349.683594 227.082031 352.289063 225.058594 355.253906 223.394531 C 355.101563 222.042969 355.601563 221.339844 355.597656 220.136719 C 352.386719 222.753906 349.421875 225.621094 346.511719 228.539063 "/>
<path style=" stroke:none;fill-rule:nonzero;fill:rgb(0%,0%,0%);fill-opacity:1;" d="M 365.371094 220.308594 C 365.433594 221.105469 365.953125 221.4375 366.570313 221.679688 C 366.714844 221.308594 367.015625 221.09375 366.914063 220.480469 C 366.628906 220.191406 365.90625 220.34375 365.371094 220.308594 "/>
<path style=" stroke:none;fill-rule:nonzero;fill:rgb(0%,0%,0%);fill-opacity:1;" d="M 369.144531 221.679688 C 368.402344 220.972656 367.0625 221.070313 367.257813 222.539063 C 367.855469 222.722656 368.402344 223.144531 368.972656 222.878906 C 368.890625 222.339844 369.28125 222.273438 369.144531 221.679688 "/>
<path style=" stroke:none;fill-rule:nonzero;fill:rgb(0%,0%,0%);fill-opacity:1;" d="M 401.722656 226.996094 C 400.902344 228.386719 403.582031 228.859375 403.949219 227.683594 C 403.574219 227.085938 402.730469 226.957031 401.722656 226.996094 "/>
<path style=" stroke:none;fill-rule:nonzero;fill:rgb(0%,0%,0%);fill-opacity:1;" d="M 132.695313 230.765625 C 132.972656 230.4375 132.640625 229.679688 132.007813 229.738281 C 131.613281 230.183594 131.988281 230.898438 132.695313 230.765625 "/>
<path style=" stroke:none;fill-rule:nonzero;fill:rgb(0%,0%,0%);fill-opacity:1;" d="M 394.691406 232.140625 C 395.6875 232.839844 397.722656 231.660156 396.578125 230.765625 C 396.148438 231.425781 394.804688 231.164063 394.691406 232.140625 "/>
<path style=" stroke:none;fill-rule:nonzero;fill:rgb(0%,0%,0%);fill-opacity:1;" d="M 372.058594 232.824219 C 371.886719 232.023438 371.523438 231.417969 371.027344 230.9375 C 370.914063 230.9375 370.800781 230.9375 370.6875 230.9375 C 370.507813 232.136719 371 233.421875 372.058594 232.824219 "/>
<path style=" stroke:none;fill-rule:nonzero;fill:rgb(0%,0%,0%);fill-opacity:1;" d="M 122.75 232.480469 C 121.464844 233.199219 119.828125 233.5625 118.289063 234.027344 C 118.472656 234.8125 118.796875 235.464844 119.492188 235.738281 C 120.714844 234.792969 122.09375 233.996094 123.09375 232.824219 C 123.054688 232.632813 122.902344 232.558594 122.75 232.480469 "/>
<path style=" stroke:none;fill-rule:nonzero;fill:rgb(0%,0%,0%);fill-opacity:1;" d="M 402.921875 235.570313 C 404.691406 233.429688 407.304688 234.273438 409.953125 234.539063 C 408.367188 233.78125 406.734375 233.070313 404.980469 232.480469 C 404.53125 233.566406 402.378906 234.617188 402.921875 235.570313 "/>
<path style=" stroke:none;fill-rule:nonzero;fill:rgb(0%,0%,0%);fill-opacity:1;" d="M 396.234375 241.226563 C 400.308594 240.671875 405.125 240.855469 408.753906 239.855469 C 404.128906 238.703125 398.390625 237.761719 393.835938 237.109375 C 394.371094 238.746094 395.660156 239.628906 396.234375 241.226563 "/>
<path style=" stroke:none;fill-rule:nonzero;fill:rgb(0%,0%,0%);fill-opacity:1;" d="M 353.539063 242.257813 C 353.320313 242.246094 353.304688 242.035156 353.027344 242.085938 C 351.289063 244.003906 348.304688 244.679688 347.023438 247.058594 C 349.429688 246.316406 351.558594 245.304688 353.367188 243.972656 C 353.761719 243.730469 353.433594 242.777344 353.539063 242.257813 "/>
<path style=" stroke:none;fill-rule:nonzero;fill:rgb(0%,0%,0%);fill-opacity:1;" d="M 347.539063 244.65625 C 347.007813 244.410156 346.429688 244.683594 346.339844 245.34375 C 346.769531 245.589844 347.011719 245.757813 347.539063 245.515625 C 347.539063 245.226563 347.539063 244.941406 347.539063 244.65625 "/>
<path style=" stroke:none;fill-rule:nonzero;fill:rgb(0%,0%,0%);fill-opacity:1;" d="M 403.4375 247.570313 C 404.730469 247.691406 406.152344 245.773438 404.636719 245.171875 C 404.335938 246.070313 403.59375 246.53125 403.4375 247.570313 "/>
<path style=" stroke:none;fill-rule:nonzero;fill:rgb(0%,0%,0%);fill-opacity:1;" d="M 398.292969 246.199219 C 397.761719 246.875 397.417969 248.75 398.636719 248.941406 C 399.5 248.558594 399.703125 246.144531 398.292969 246.199219 "/>
<path style=" stroke:none;fill-rule:nonzero;fill:rgb(0%,0%,0%);fill-opacity:1;" d="M 371.027344 276.546875 C 372.53125 274.847656 374.613281 273.734375 376.175781 272.089844 C 375.988281 270.273438 374.683594 268.980469 374.800781 267.460938 C 374.988281 265.03125 377.933594 264.363281 378.574219 262.144531 C 377.632813 261.699219 375.496094 262.871094 374.800781 262.144531 C 375.96875 259.371094 376.089844 254.375 375.828125 251.6875 C 374.375 251.597656 374.769531 249.660156 373.773438 249.113281 C 372.738281 252.109375 371.980469 255.875 371.199219 259.917969 C 370.019531 266.039063 368.945313 271.765625 371.027344 276.546875 "/>
<path style=" stroke:none;fill-rule:nonzero;fill:rgb(0%,0%,0%);fill-opacity:1;" d="M 402.75 253.914063 C 401.980469 252.515625 400.15625 252.089844 398.464844 252.886719 C 398.949219 254.105469 401.175781 254.335938 402.75 253.914063 "/>
<path style=" stroke:none;fill-rule:nonzero;fill:rgb(0%,0%,0%);fill-opacity:1;" d="M 364.6875 260.257813 C 364.507813 261.335938 365.785156 262.144531 366.914063 262.660156 C 368.925781 262.269531 371.015625 259.699219 369.144531 257.515625 C 368.019531 258.148438 364.902344 258.933594 364.6875 260.257813 "/>
<path style=" stroke:none;fill-rule:nonzero;fill:rgb(0%,0%,0%);fill-opacity:1;" d="M 382.175781 270.890625 C 382.359375 271.390625 382.992188 271.445313 383.71875 271.40625 C 384.453125 270.308594 384.488281 268.515625 384.746094 266.945313 C 383.753906 265.9375 382.503906 265.191406 382.003906 263.6875 C 381.554688 263.511719 380.949219 263.484375 380.289063 263.515625 C 379.949219 266.484375 382.339844 266.722656 382.6875 269.003906 C 382.679688 269.753906 381.734375 270.238281 382.175781 270.890625 "/>
<path style=" stroke:none;fill-rule:nonzero;fill:rgb(0%,0%,0%);fill-opacity:1;" d="M 365.371094 267.289063 C 366.210938 266.953125 365.6875 265.523438 365.542969 264.71875 C 364.195313 264.707031 364.316406 267.039063 365.371094 267.289063 "/>
<path style=" stroke:none;fill-rule:nonzero;fill:rgb(0%,0%,0%);fill-opacity:1;" d="M 377.71875 265.574219 C 377.296875 266.640625 377.285156 268.117188 377.203125 269.519531 C 378.035156 269.324219 378.644531 268.902344 378.917969 268.148438 C 378.375 267.429688 378.464844 266.082031 377.71875 265.574219 "/>
<path style=" stroke:none;fill-rule:nonzero;fill:rgb(0%,0%,0%);fill-opacity:1;" d="M 336.050781 268.832031 C 335.300781 267.511719 333.726563 269.328125 334.335938 270.375 C 335.5 270.453125 335.816406 269.683594 336.050781 268.832031 "/>
<path style=" stroke:none;fill-rule:nonzero;fill:rgb(0%,0%,0%);fill-opacity:1;" d="M 367.941406 269.347656 C 367.101563 269.066406 366.140625 270.019531 365.199219 270.203125 C 365.289063 271.316406 365.933594 271.871094 366.570313 272.433594 C 367.113281 271.492188 367.507813 270.394531 367.941406 269.347656 "/>
<path style=" stroke:none;fill-rule:nonzero;fill:rgb(0%,0%,0%);fill-opacity:1;" d="M 336.394531 270.890625 C 336.140625 270.800781 335.960938 270.636719 335.707031 270.546875 C 335.402344 270.777344 335.179688 271.539063 335.535156 271.917969 C 336.21875 271.972656 336.464844 271.589844 336.394531 270.890625 "/>
<path style=" stroke:none;fill-rule:nonzero;fill:rgb(0%,0%,0%);fill-opacity:1;" d="M 378.230469 273.464844 C 378.582031 273.726563 379.765625 273.726563 380.117188 273.464844 C 380.109375 272.363281 378.367188 272.757813 378.230469 273.464844 "/>
<path style=" stroke:none;fill-rule:nonzero;fill:rgb(0%,0%,0%);fill-opacity:1;" d="M 384.574219 276.546875 C 384.574219 275.519531 384.574219 274.492188 384.574219 273.464844 C 382.050781 275.679688 379.789063 278.164063 377.71875 280.835938 C 380.234375 279.640625 382.246094 277.9375 384.574219 276.546875 "/>
<path style=" stroke:none;fill-rule:nonzero;fill:rgb(0%,0%,0%);fill-opacity:1;" d="M 364.34375 275.863281 C 364.382813 275.730469 364.347656 275.523438 364.515625 275.519531 C 363.703125 271.214844 360.34375 276.867188 364.34375 275.863281 "/>
<path style=" stroke:none;fill-rule:nonzero;fill:rgb(0%,0%,0%);fill-opacity:1;" d="M 330.222656 275.519531 C 330.632813 275.023438 330.261719 274.210938 329.707031 274.148438 C 329.140625 274.546875 329.492188 275.460938 330.222656 275.519531 "/>
<path style=" stroke:none;fill-rule:nonzero;fill:rgb(0%,0%,0%);fill-opacity:1;" d="M 335.363281 275.003906 C 334.703125 274.972656 334.378906 275.277344 334.335938 275.863281 C 334.699219 276.140625 335.460938 275.71875 335.363281 275.003906 "/>
<path style=" stroke:none;fill-rule:nonzero;fill:rgb(0%,0%,0%);fill-opacity:1;" d="M 375.316406 276.546875 C 373.429688 276.671875 371.527344 278.238281 369.484375 278.777344 C 368.839844 278.113281 369.121094 276.515625 368.113281 276.207031 C 368.183594 278.960938 367.628906 281.089844 367.085938 283.234375 C 369.851563 281.027344 373.210938 279.417969 375.316406 276.546875 "/>
<path style=" stroke:none;fill-rule:nonzero;fill:rgb(0%,0%,0%);fill-opacity:1;" d="M 325.59375 280.148438 C 326.507813 279.636719 326.78125 278.484375 327.136719 277.40625 C 326.496094 277.183594 325.699219 277.125 324.90625 277.0625 C 324.6875 277.898438 325.5 279.066406 325.59375 280.148438 "/>
<path style=" stroke:none;fill-rule:nonzero;fill:rgb(0%,0%,0%);fill-opacity:1;" d="M 439.101563 279.121094 C 435.320313 280.425781 431.121094 281.3125 427.613281 282.894531 C 432.578125 283.304688 437.136719 282.539063 439.101563 279.121094 "/>
<path style=" stroke:none;fill-rule:nonzero;fill:rgb(0%,0%,0%);fill-opacity:1;" d="M 372.230469 282.378906 C 371.757813 283.363281 369.941406 285.378906 371.542969 286.320313 C 372.269531 285.679688 373.03125 283.429688 372.230469 282.378906 "/>
<path style=" stroke:none;fill-rule:nonzero;fill:rgb(0%,0%,0%);fill-opacity:1;" d="M 310.332031 286.152344 C 310.734375 286.207031 310.976563 286.421875 311.53125 286.320313 C 311.796875 285.78125 311.640625 285.367188 311.359375 284.949219 C 310.476563 284.8125 310.3125 285.386719 310.332031 286.152344 "/>
<path style=" stroke:none;fill-rule:nonzero;fill:rgb(0%,0%,0%);fill-opacity:1;" d="M 367.769531 286.664063 C 368.3125 287.097656 368.421875 287.957031 368.628906 288.722656 C 369.878906 288.886719 370.226563 288.148438 370.34375 287.179688 C 370.949219 287.273438 371.226563 287.035156 371.371094 286.664063 C 370.484375 286.5 368.488281 285.894531 367.769531 286.664063 "/>
<path style=" stroke:none;fill-rule:nonzero;fill:rgb(0%,0%,0%);fill-opacity:1;" d="M 302.445313 288.035156 C 302.960938 288.277344 303.839844 288.832031 304.5 288.378906 C 304.65625 286.492188 302.507813 286.230469 302.445313 288.035156 "/>
<path style=" stroke:none;fill-rule:nonzero;fill:rgb(0%,0%,0%);fill-opacity:1;" d="M 375.660156 294.210938 C 374.699219 293.621094 373.890625 294.644531 374.285156 295.410156 C 375.070313 295.335938 375.628906 295.035156 375.660156 294.210938 "/>
<path style=" stroke:none;fill-rule:nonzero;fill:rgb(0%,0%,0%);fill-opacity:1;" d="M 382.859375 300.894531 C 381.414063 299.429688 381.382813 296.546875 379.773438 295.238281 C 380.339844 299.363281 380.589844 303.796875 381.144531 307.925781 C 382.15625 308.457031 382.929688 309.230469 384.402344 309.296875 C 383.59375 306.878906 381.195313 303.671875 382.859375 300.894531 "/>
<path style=" stroke:none;fill-rule:nonzero;fill:rgb(0%,0%,0%);fill-opacity:1;" d="M 371.199219 298.152344 C 370.488281 299.898438 369.511719 301.378906 368.800781 303.125 C 370.59375 303.144531 373.480469 300.207031 371.199219 298.152344 "/>
<path style=" stroke:none;fill-rule:nonzero;fill:rgb(0%,0%,0%);fill-opacity:1;" d="M 366.058594 301.238281 C 365.898438 300.9375 365.738281 300.644531 365.199219 300.726563 C 365.070313 301.347656 364.523438 301.648438 364.855469 302.269531 C 365.550781 302.21875 366.089844 302.015625 366.058594 301.238281 "/>
<path style=" stroke:none;fill-rule:nonzero;fill:rgb(0%,0%,0%);fill-opacity:1;" d="M 366.058594 303.125 C 366.136719 302.589844 365.625 302.640625 365.371094 302.441406 C 364.832031 302.917969 365.660156 303.585938 366.058594 303.125 "/>
<path style=" stroke:none;fill-rule:nonzero;fill:rgb(0%,0%,0%);fill-opacity:1;" d="M 365.714844 304.15625 C 365.46875 304.382813 365.46875 305.125 365.714844 305.355469 C 366.234375 305.246094 366.589844 304.972656 366.570313 304.324219 C 366.371094 304.183594 366.113281 304.097656 365.714844 304.15625 "/>
<path style=" stroke:none;fill-rule:nonzero;fill:rgb(0%,0%,0%);fill-opacity:1;" d="M 371.886719 305.183594 C 372.019531 305.738281 372.359375 306.082031 372.914063 306.210938 C 373.144531 305.8125 373.199219 305.238281 373.429688 304.839844 C 372.890625 304.386719 372.242188 304.921875 371.886719 305.183594 "/>
<path style=" stroke:none;fill-rule:nonzero;fill:rgb(0%,0%,0%);fill-opacity:1;" d="M 359.199219 306.554688 C 359.609375 306.773438 359.828125 307.179688 360.570313 307.070313 C 360.996094 306.472656 360.546875 305.570313 360.226563 305.183594 C 359.273438 305.03125 359.164063 305.71875 359.199219 306.554688 "/>
<path style=" stroke:none;fill-rule:nonzero;fill:rgb(0%,0%,0%);fill-opacity:1;" d="M 376.6875 306.210938 C 377.199219 306.839844 377.386719 307.800781 378.402344 307.925781 C 378.886719 307.496094 379.238281 306.933594 379.261719 306.039063 C 378.636719 305.121094 377.054688 304.902344 376.6875 306.210938 "/>
<path style=" stroke:none;fill-rule:nonzero;fill:rgb(0%,0%,0%);fill-opacity:1;" d="M 366.398438 305.867188 C 366.199219 305.726563 365.941406 305.644531 365.542969 305.699219 C 365.375 306.101563 365.242188 306.539063 365.199219 307.070313 C 365.726563 307.382813 366.441406 306.667969 366.398438 305.867188 "/>
<path style=" stroke:none;fill-rule:nonzero;fill:rgb(0%,0%,0%);fill-opacity:1;" d="M 368.113281 308.441406 C 367.714844 309.007813 368.113281 309.964844 368.800781 309.984375 C 369.152344 309.765625 369.671875 309.710938 369.65625 309.128906 C 369.351563 308.691406 368.871094 308.425781 368.113281 308.441406 "/>
<path style=" stroke:none;fill-rule:nonzero;fill:rgb(0%,0%,0%);fill-opacity:1;" d="M 366.398438 315.816406 C 366.230469 315.816406 366.058594 315.816406 365.886719 315.816406 C 365.515625 316.933594 364.429688 318.042969 365.027344 319.585938 C 365.746094 319.675781 366.191406 319.492188 366.570313 319.242188 C 366.445313 318.171875 366.339844 317.074219 366.398438 315.816406 "/>
<path style=" stroke:none;fill-rule:nonzero;fill:rgb(0%,0%,0%);fill-opacity:1;" d="M 366.570313 320.101563 C 366.15625 320.726563 366.984375 321.332031 367.257813 321.816406 C 367.941406 321.816406 368.628906 321.816406 369.316406 321.816406 C 369.152344 320.492188 367.238281 320.917969 366.570313 320.101563 "/>
<path style=" stroke:none;fill-rule:nonzero;fill:rgb(0%,0%,0%);fill-opacity:1;" d="M 373.601563 325.757813 C 373.980469 326.695313 374.585938 327.402344 375.488281 327.816406 C 376.183594 327.101563 377.222656 327.746094 377.890625 327.128906 C 377.96875 324.492188 374.984375 324.757813 373.601563 325.757813 "/>
<path style=" stroke:none;fill-rule:nonzero;fill:rgb(0%,0%,0%);fill-opacity:1;" d="M 419.113281 93.769531 C 419.214844 94.699219 418.636719 95.328125 418.28125 95.882813 C 418.085938 96.191406 418.03125 96.925781 417.574219 96.652344 C 417.550781 96.433594 417.769531 96.460938 417.832031 96.332031 C 417.738281 95.371094 418.292969 94.050781 418.40625 93.195313 C 418.367188 93.003906 418.269531 93.253906 418.152344 93.195313 C 418.148438 92.917969 418.082031 92.707031 417.960938 92.554688 C 417.558594 92.878906 417.613281 93.65625 417.257813 94.027344 C 417.027344 92.734375 417.777344 92.414063 418.28125 91.847656 C 418.265625 91.683594 418.171875 91.9375 418.023438 91.847656 C 418.148438 91.570313 418.5 91.515625 418.601563 91.210938 C 419.1875 91.476563 419.613281 91.902344 419.882813 92.488281 C 419.578125 92.871094 419.425781 93.398438 419.113281 93.769531 Z M 417.449219 97.484375 C 417.226563 97.386719 416.921875 97.371094 416.871094 97.097656 C 417.15625 97.019531 417.433594 96.933594 417.769531 96.90625 C 417.796875 97.234375 417.597656 97.332031 417.449219 97.484375 Z M 416.296875 95.5 C 416.0625 95.027344 416.53125 94.277344 416.808594 93.898438 C 417.125 94.414063 416.796875 95.375 416.296875 95.5 Z M 415.910156 93.898438 C 415.710938 93.609375 416.050781 93.3125 416.167969 93.128906 C 416.496094 93.3125 416.03125 93.746094 415.910156 93.898438 Z M 415.464844 94.984375 C 415.46875 94.5 415.742188 94.285156 415.910156 93.960938 C 416.117188 94.183594 415.894531 94.984375 415.464844 94.984375 Z M 416.871094 91.65625 C 417.011719 91.832031 416.675781 92.605469 416.296875 92.679688 C 416.378906 92.230469 416.675781 91.992188 416.871094 91.65625 Z M 417.769531 94.152344 C 417.816406 94.671875 417.632813 95.511719 417.191406 95.753906 C 417.460938 95.296875 417.554688 94.667969 417.769531 94.152344 Z M 417.832031 93.320313 C 418.128906 93.355469 417.863281 93.78125 417.832031 93.898438 C 417.636719 93.757813 417.894531 93.539063 417.832031 93.320313 Z M 418.023438 90.695313 C 418.230469 90.707031 418.304688 90.84375 418.28125 91.082031 C 417.8125 91.210938 417.628906 91.625 417.320313 91.914063 C 417.277344 91.488281 417.71875 90.988281 418.023438 90.695313 Z M 418.535156 91.210938 C 418.382813 91.183594 418.394531 91.324219 418.214844 91.273438 C 418.183594 91.042969 418.558594 90.890625 418.535156 91.210938 Z M 407.84375 106.960938 C 407.621094 106.90625 407.574219 107.078125 407.460938 106.960938 C 407.472656 106.773438 407.871094 106.648438 407.84375 106.960938 Z M 413.800781 93.707031 C 413.902344 93.359375 413.972656 92.984375 414.183594 92.746094 C 414.445313 92.960938 413.996094 93.527344 413.800781 93.707031 Z M 448.5 93.066406 C 447.375 92.710938 446.164063 93.34375 445.234375 93.640625 C 442.507813 94.523438 439.4375 94.894531 437.359375 96.265625 C 437.242188 96.425781 437.164063 96.628906 436.976563 96.714844 C 436.28125 97 435.359375 97.0625 434.863281 97.546875 C 432.597656 97.703125 430.128906 98.925781 427.5625 99.402344 C 426.976563 99.515625 426.246094 99.53125 425.644531 99.789063 C 424.925781 100.097656 424.480469 100.5625 423.65625 100.429688 C 423.269531 100.367188 422.398438 99.839844 422.121094 99.597656 C 421.886719 99.386719 421.445313 98.820313 421.226563 98.507813 C 421.167969 98.425781 421.234375 98.316406 421.160156 98.1875 C 420.808594 97.546875 420.308594 97.652344 420.519531 96.714844 C 420.675781 96.042969 421.125 95.027344 421.289063 94.28125 C 421.484375 93.394531 421.40625 92.625 421.675781 91.785156 C 420.421875 89.878906 417.769531 89.371094 415.976563 88.007813 C 415.992188 87.820313 415.828125 87.8125 415.847656 87.625 C 415.246094 87.371094 414.914063 86.847656 414.4375 86.472656 C 414.328125 86.464844 414.238281 86.484375 414.183594 86.535156 C 414.015625 86.9375 415.03125 86.984375 414.757813 87.496094 C 414.214844 87.390625 413.96875 86.675781 413.285156 86.917969 C 413.476563 87.433594 414.246094 87.367188 414.4375 87.878906 C 413.761719 87.867188 413.492188 87.128906 412.902344 87.238281 C 412.855469 87.890625 414.074219 87.8125 414.3125 88.390625 C 413.691406 88.390625 413.410156 88.054688 412.902344 87.945313 C 412.882813 88.730469 413.988281 88.394531 414.117188 89.03125 C 413.933594 89.230469 413.445313 89.128906 413.605469 89.671875 C 415.085938 88.902344 416.9375 89.71875 417.769531 90.695313 C 417.558594 91.042969 417.269531 91.304688 416.808594 91.402344 C 416.195313 91.941406 415.925781 92.824219 415.269531 93.320313 C 415.253906 92.75 415.542969 92.484375 415.78125 92.167969 C 415.496094 91.804688 416.015625 91.734375 415.847656 91.402344 C 415.65625 91.679688 415.519531 92.015625 415.207031 92.167969 C 414.816406 91.878906 415.515625 91.214844 415.144531 90.953125 C 414.890625 91.234375 414.925781 91.800781 414.632813 92.042969 C 414.414063 91.9375 414.539063 91.492188 414.3125 91.402344 C 414.195313 91.542969 414.058594 91.660156 414.117188 91.976563 C 412.996094 92.96875 412.5 94.585938 411.238281 95.433594 C 410.847656 96.152344 410.308594 97.222656 410.789063 98.1875 C 410.898438 98.40625 411.222656 98.546875 411.363281 98.761719 C 411.640625 99.1875 411.683594 99.75 412.132813 99.851563 C 412.289063 100.09375 412.292969 100.320313 412.324219 100.558594 C 413.105469 100.671875 413.542969 101.132813 414.117188 101.453125 C 414.925781 100.800781 416.378906 100.789063 416.488281 102.09375 C 416.105469 102.5 415.667969 102.851563 415.207031 103.183594 C 414.695313 104.203125 413.929688 105.238281 412.773438 105.871094 C 411.675781 106.472656 408.953125 106.796875 408.101563 106 C 407.464844 106.046875 406.640625 105.90625 406.371094 106.320313 C 406.632813 106.59375 406.988281 106.769531 407.332031 106.960938 C 407.304688 107.109375 407.050781 107.128906 407.203125 107.28125 C 407.867188 107.378906 408.425781 106.941406 408.738281 107.40625 C 408.96875 107.398438 409.027344 107.222656 409.253906 107.214844 C 410.449219 107.558594 411.695313 107.6875 412.710938 107.535156 C 412.847656 107.515625 413.101563 107.460938 413.222656 107.40625 C 415.148438 106.570313 416.628906 104.414063 419.238281 105.613281 C 419.632813 105.164063 420.019531 105.578125 420.585938 105.550781 C 421.820313 105.488281 423.316406 105.726563 424.554688 105.679688 C 425.03125 105.660156 425.546875 105.566406 425.898438 105.613281 C 426.144531 105.648438 426.296875 105.851563 426.539063 105.933594 C 428.039063 106.445313 429.636719 106.554688 431.277344 106.703125 C 433.308594 106.886719 435.703125 106.398438 436.847656 105.808594 C 437.003906 105 437.394531 104.433594 437.9375 104.015625 C 438.285156 103.929688 438.320313 104.023438 438.640625 104.078125 C 438.820313 103.863281 438.9375 103.804688 438.769531 103.503906 C 439.175781 103.117188 439.800781 102.957031 440.113281 102.476563 C 440.855469 102.40625 441.988281 102.375 442.097656 101.835938 C 442.296875 100.839844 439.953125 100.738281 439.089844 101.003906 C 438.804688 100.585938 438.425781 100.261719 437.679688 100.300781 C 437.324219 100.777344 437.203125 101.488281 437.105469 102.222656 C 436.679688 102.558594 436.113281 102.804688 435.757813 103.183594 C 435.503906 103.453125 435.425781 103.867188 435.117188 103.949219 C 434.542969 104.105469 433.476563 103.679688 432.878906 103.503906 C 432.183594 103.296875 431.398438 103.164063 430.894531 102.796875 C 432.425781 101.46875 434.363281 100.550781 436.207031 99.53125 C 436.320313 99.414063 436.371094 99.585938 436.59375 99.53125 C 436.742188 99.363281 436.828125 99.128906 437.039063 99.019531 C 437.167969 99.019531 437.296875 99.019531 437.425781 99.019531 C 438.421875 98.097656 439.96875 97.722656 441.199219 97.035156 C 442.339844 97.160156 442.664063 95.816406 443.570313 95.5625 C 443.722656 95.519531 443.859375 95.636719 444.019531 95.628906 C 445.042969 95.558594 446.070313 94.796875 447.410156 94.859375 C 447.863281 95.117188 448.339844 94.863281 448.820313 94.792969 C 448.933594 94.15625 448.75 93.523438 448.5 93.066406 "/>
<path style=" stroke:none;fill-rule:nonzero;fill:rgb(0%,0%,0%);fill-opacity:1;" d="M 246.800781 65.089844 C 246.410156 64.652344 247.117188 64.046875 246.800781 63.691406 C 246.214844 63.933594 246.363281 64.921875 245.898438 65.289063 C 245.914063 64.40625 246.296875 63.019531 246.300781 61.789063 C 247.132813 61.757813 247.152344 62.609375 247 63.289063 C 247.238281 63.535156 247.1875 63.140625 247.503906 63.191406 C 247.449219 64.003906 247.253906 64.675781 246.800781 65.089844 Z M 244.300781 64.992188 C 244.203125 64.625 244.007813 63.386719 244.398438 63.191406 C 244.609375 63.730469 244.683594 64.566406 244.300781 64.992188 Z M 243.800781 67.292969 C 243.550781 66.972656 243.558594 66.242188 243.800781 66.089844 C 243.933594 66.328125 244.214844 67.132813 243.800781 67.292969 Z M 240.699219 77.195313 C 240.589844 76.765625 240.777344 76.003906 241.300781 75.894531 C 241.363281 75.894531 241.433594 75.894531 241.5 75.894531 C 241.816406 76.542969 241.265625 77.105469 240.699219 77.195313 Z M 233.695313 62.789063 C 233.679688 63.628906 233.695313 64.347656 233.59375 64.992188 C 233.464844 65.824219 233.394531 67.027344 232.796875 67.292969 C 232.480469 66.789063 232.527344 65.96875 232.59375 65.289063 C 232.691406 64.28125 232.917969 62.992188 233.394531 62.488281 C 233.460938 62.488281 233.527344 62.488281 233.59375 62.488281 C 233.601563 62.617188 233.722656 62.628906 233.695313 62.789063 Z M 249.703125 65.691406 C 250.167969 64.320313 251.578125 63.367188 251.804688 62.089844 C 250.566406 62.484375 250.355469 63.90625 249.203125 64.390625 C 248.859375 64.136719 249.535156 63.117188 248.703125 62.988281 C 248.804688 63.550781 248.484375 63.871094 248.101563 64.191406 C 248.117188 64.84375 247.988281 65.34375 247.503906 65.492188 C 247.203125 64.691406 248.042969 64.066406 248.003906 63.289063 C 247.957031 62.441406 247.261719 62.140625 246.800781 61.488281 C 247.066406 60.6875 247.550781 60.105469 247.699219 59.1875 C 246.867188 59.589844 246.65625 60.613281 246.101563 61.289063 C 245.550781 60.839844 245.554688 59.835938 244.601563 59.789063 C 244.695313 60.417969 245.484375 61.773438 245.398438 62.589844 C 245.316406 63.410156 244.5625 63.515625 244.300781 62.589844 C 244.222656 62.3125 244.355469 61.726563 244.300781 61.1875 C 244.21875 60.414063 243.839844 59.8125 243.898438 58.988281 C 243.03125 59.71875 243.6875 61.386719 243.601563 62.589844 C 243.558594 63.171875 243.105469 63.585938 243.398438 64.089844 C 242.339844 63.773438 243.128906 62.546875 243.300781 61.789063 C 242.6875 61.710938 242.910156 62.464844 242.5 62.589844 C 241.609375 61.640625 240.730469 60.164063 239.496094 59.886719 C 239.953125 61.066406 241.15625 61.496094 241.699219 62.589844 C 241.367188 63.558594 241.683594 65.175781 241 65.789063 C 240.441406 64.867188 241.417969 63.832031 241.300781 62.691406 C 240.777344 62.769531 241.050781 63.640625 240.800781 63.992188 C 240.296875 63.992188 240.066406 63.722656 239.597656 63.691406 C 238.832031 64.058594 238.347656 64.707031 237.496094 64.992188 C 237.4375 64.210938 238.558594 64.140625 238.195313 63.390625 C 237.367188 63.425781 237.253906 64.179688 236.695313 64.492188 C 236.296875 63.875 236.769531 62.433594 236.296875 61.6875 C 236.691406 61.121094 236.507813 60.421875 236.695313 59.789063 C 236.875 59.1875 237.609375 58.710938 237.296875 58.085938 C 236.546875 57.9375 236.632813 58.625 236.097656 58.6875 C 235.523438 57.394531 236.847656 55.359375 236.394531 54.1875 C 235.429688 54.121094 235.550781 55.140625 234.996094 55.488281 C 234.644531 54.347656 235.277344 52.515625 235.695313 51.484375 C 235.289063 49.128906 236.714844 48.050781 236.695313 45.78125 C 237.046875 45.160156 237.390625 43.820313 236.996094 43.082031 C 236.414063 43.183594 236.28125 43.042969 235.796875 42.679688 C 235.527344 42.878906 235.730469 43.546875 235.296875 43.582031 C 234.71875 43.382813 234.964844 41.972656 234.097656 42.378906 C 233.644531 43.550781 234.988281 44.269531 234.796875 45.179688 C 234.550781 45.433594 234.285156 44.742188 233.894531 45.082031 C 233.691406 46.449219 232.886719 47.515625 233.09375 48.882813 C 233.152344 49.257813 233.46875 49.589844 233.496094 49.984375 C 233.539063 50.644531 233.203125 51.546875 232.894531 52.285156 C 231.871094 54.714844 229.652344 57.46875 229.191406 60.1875 C 229.066406 60.925781 229.179688 61.679688 229.09375 62.390625 C 228.832031 64.546875 228.324219 66.550781 228.09375 68.691406 C 228 69.539063 228.335938 70.546875 227.792969 71.394531 C 226.441406 71.449219 224.644531 70.898438 223.191406 71.492188 C 222.0625 71.953125 221.1875 74.074219 219.390625 74.496094 C 218.535156 74.695313 217.636719 74.46875 216.886719 74.796875 C 216.449219 74.984375 215.96875 75.765625 215.386719 75.894531 C 214.625 76.0625 213.757813 76.570313 213.085938 76.796875 C 212.570313 76.972656 211.890625 77.074219 211.585938 76.996094 C 211.019531 76.855469 210.828125 75.929688 210.085938 75.894531 C 209.261719 75.859375 209.1875 76.539063 208.28125 76.796875 C 207.210938 76.167969 207.132813 74.546875 205.980469 73.996094 C 206.054688 73.558594 205.8125 73.429688 205.882813 72.996094 C 203.289063 70.785156 201.328125 67.945313 198.878906 65.589844 C 196.878906 65.457031 196.207031 63.742188 194.378906 63.589844 C 191.351563 63.335938 189.195313 65.535156 186.171875 65.589844 C 185.5625 66.507813 184.617188 66.644531 183.273438 67.191406 C 181.996094 67.710938 180.691406 68.386719 179.972656 66.890625 C 179.722656 66.375 179.800781 65.425781 179.46875 64.589844 C 179.34375 64.265625 178.984375 63.988281 178.871094 63.691406 C 178.5625 62.902344 178.632813 61.769531 177.96875 61.589844 C 176.941406 61.308594 174.789063 64.03125 174.566406 65.191406 C 174.480469 65.644531 174.632813 66.210938 174.566406 66.691406 C 175.175781 67.683594 176.007813 68.597656 176.46875 69.792969 C 176.851563 70.785156 176.882813 71.785156 177.96875 72.09375 C 182.976563 71.742188 188.125 73.273438 191.476563 71.09375 C 192.117188 71.484375 192.847656 71.792969 193.675781 71.992188 C 194.902344 74.871094 196.78125 77.09375 198.179688 79.796875 C 197.820313 80.171875 197.09375 80.175781 196.679688 80.496094 C 196.304688 82.027344 195.347656 82.96875 193.777344 83.300781 C 193.441406 83.234375 193.300781 82.976563 193.078125 82.800781 C 192.054688 83.621094 191.304688 83.632813 190.074219 83.398438 C 189.390625 83.269531 188.933594 83.429688 188.273438 83.097656 C 187.132813 82.527344 186.644531 81.378906 185.773438 80.699219 C 185.558594 80.53125 185.191406 80.441406 184.871094 80.199219 C 183.976563 79.511719 183.464844 78.5625 182.671875 78.796875 C 181.503906 79.144531 181.167969 83.976563 182.269531 84.898438 C 182.96875 85.371094 183.855469 85.652344 184.472656 86.199219 C 184.636719 86.871094 184.964844 87.378906 185.472656 87.699219 C 186.945313 87.894531 189.015625 88.121094 190.976563 87.601563 C 192.34375 88.121094 195.132813 89.371094 195.277344 87 C 196.863281 86.878906 198.285156 87.355469 199.777344 87 C 200.3125 86.875 200.703125 86.257813 201.28125 86.300781 C 202.453125 86.386719 202.300781 87.992188 202.78125 89.003906 C 203.4375 90.386719 205.003906 90.742188 205.980469 92.003906 C 207.703125 91.976563 209.324219 92.984375 210.886719 92.203125 C 211.722656 92.609375 212.785156 92.554688 213.285156 91.902344 C 213.273438 91.527344 213.261719 90.960938 213.386719 90.601563 C 213.601563 89.984375 215.246094 88.703125 216.285156 88 C 216.664063 87.746094 217.53125 87.269531 217.988281 87.199219 C 218.417969 87.136719 218.976563 87.332031 219.488281 87.300781 C 221.605469 87.171875 224.054688 85.828125 226.390625 85.601563 C 227.21875 85.519531 227.785156 85.65625 228.492188 85.601563 C 230.109375 85.472656 230.867188 84.660156 232.296875 83.898438 C 233.066406 83.488281 233.996094 83.355469 234.597656 82.699219 C 235.386719 81.828125 235.109375 80.542969 235.894531 79.496094 C 239.199219 79.734375 240.628906 78.09375 242 76.394531 C 241.511719 74.707031 243.726563 74.816406 244.800781 73.796875 C 245.269531 73.351563 245.234375 72.945313 245.699219 72.59375 C 246.308594 72.433594 246.828125 72.1875 246.902344 71.492188 C 246.855469 71.136719 246.324219 71.269531 246.101563 71.09375 C 246.121094 70.648438 246.75 70.808594 246.800781 70.394531 C 246.890625 69.878906 247.027344 69.417969 247.402344 69.191406 C 247.402344 68.925781 247.402344 68.660156 247.402344 68.390625 C 248.015625 67.335938 248.621094 66.277344 249.703125 65.691406 "/>
<path style=" stroke:none;fill-rule:nonzero;fill:rgb(0%,0%,0%);fill-opacity:1;" d="M 252.09375 103.226563 C 251.902344 103.3125 251.683594 103.632813 251.398438 103.839844 C 251.285156 103.921875 251.121094 103.921875 251.027344 104 C 250.972656 104.046875 250.972656 104.167969 250.90625 104.238281 C 250.785156 104.378906 250.5625 104.441406 250.496094 104.523438 C 250.417969 104.625 250.417969 104.804688 250.324219 104.929688 C 250.242188 105.039063 250.121094 105.078125 250.066406 105.171875 C 249.964844 105.347656 249.746094 106.039063 249.742188 106.21875 C 249.738281 106.378906 249.890625 106.574219 249.933594 106.785156 C 249.96875 106.949219 249.890625 107.109375 249.960938 107.300781 C 250.070313 107.613281 250.425781 108.128906 250.679688 108.53125 C 251.25 109.433594 252.101563 109.917969 252.988281 109.386719 C 253.574219 109.476563 253.96875 109.203125 254.453125 109.105469 C 254.496094 108.941406 254.550781 108.796875 254.628906 108.699219 C 254.957031 108.59375 255.347656 108.605469 255.75 108.632813 C 255.953125 108.441406 255.792969 108.242188 255.847656 108.019531 C 256.097656 107.996094 256.207031 107.675781 256.421875 107.507813 C 256.519531 107.433594 256.652344 107.46875 256.738281 107.378906 C 256.773438 107.339844 256.78125 107.171875 256.816406 107.125 C 256.992188 106.859375 257.363281 106.765625 257.414063 106.53125 C 257.5 106.132813 256.9375 105.726563 256.75 105.40625 C 256.277344 104.597656 256.949219 104.039063 257.5 103.433594 C 257.574219 103.351563 257.683594 103.136719 257.742188 103.09375 C 257.929688 102.960938 258.226563 103.035156 258.476563 102.953125 C 258.667969 102.890625 258.925781 102.714844 259.230469 102.589844 C 260.453125 102.101563 261.796875 101.835938 262.582031 100.824219 C 263.246094 100.550781 263.757813 99.988281 264.519531 99.910156 C 264.558594 99.796875 264.589844 99.683594 264.625 99.574219 C 265.238281 99.359375 266.074219 98.796875 266.730469 98.710938 C 267.570313 98.597656 267.964844 97.964844 268.40625 97.160156 C 269.5625 97.355469 270.585938 96.964844 271.566406 96.898438 C 272.300781 96.851563 273.226563 97.144531 273.871094 96.878906 C 274.304688 96.699219 274.734375 96.335938 275.132813 96.074219 C 275.546875 95.800781 275.882813 95.375 276.363281 95.214844 C 276.902344 95.035156 277.515625 95.140625 278.054688 94.957031 C 278.953125 94.644531 279.402344 93.847656 279.839844 92.753906 C 280.375 92.308594 280.835938 91.714844 281.21875 90.972656 C 281.277344 90.890625 281.394531 90.914063 281.480469 90.871094 C 281.476563 90.441406 281.835938 90.191406 281.925781 89.722656 C 282.371094 89.15625 283.28125 89.757813 283.886719 89.777344 C 284.46875 89.800781 284.816406 89.109375 284.648438 88.5 C 284.484375 88.386719 284.4375 88.425781 284.261719 88.425781 C 284.246094 88.292969 284.226563 88.160156 284.140625 88.066406 C 283.941406 87.957031 283.871094 88.085938 283.695313 88.019531 C 283.800781 87.777344 283.488281 87.753906 283.519531 87.550781 C 283.835938 87.117188 283.546875 86.757813 283.507813 86.398438 C 283.605469 86.292969 283.761719 86.304688 283.820313 86.128906 C 283.847656 85.9375 283.75 85.667969 283.867188 85.542969 C 284.148438 85.636719 284.460938 85.78125 284.53125 85.476563 C 284.339844 85.4375 284.15625 85.53125 284.125 85.300781 C 284.390625 84.847656 284.984375 84.453125 285.535156 84.316406 C 285.5625 84.21875 285.59375 84.121094 285.625 84.023438 C 286.15625 83.945313 286.730469 83.941406 287.246094 83.835938 C 287.59375 83.550781 287.816406 82.945313 287.539063 82.59375 C 287.207031 82.703125 287.25 82.363281 287.003906 82.242188 C 286.574219 82.425781 286.34375 81.730469 285.902344 82.085938 C 285.765625 82.042969 285.804688 81.90625 285.648438 81.867188 C 285.367188 81.902344 285.125 82.210938 284.855469 81.898438 C 284.464844 82.429688 283.65625 81.753906 283.152344 82.058594 C 283.070313 81.953125 283.144531 81.761719 282.9375 81.71875 C 282.464844 81.890625 281.449219 81.417969 281.179688 81.90625 C 281.097656 82.054688 281.25 82.222656 281.230469 82.476563 C 281.21875 82.636719 281.148438 82.730469 281.296875 82.863281 C 281.007813 83.496094 281.488281 83.925781 281.335938 84.667969 C 281.160156 84.671875 281.03125 84.761719 280.90625 84.855469 C 280.738281 85.757813 280.148438 85.855469 279.554688 85.953125 C 279.273438 86.589844 279.132813 87.390625 278.769531 88.054688 C 278.570313 88.410156 278.121094 88.554688 278.035156 88.929688 C 277.808594 89.074219 277.480469 89.046875 277.265625 89.195313 C 277.160156 89.269531 277.144531 89.421875 277.019531 89.535156 C 276.671875 89.855469 276.128906 89.925781 276 90.460938 C 275.609375 90.585938 275.289063 91.167969 274.820313 91.152344 C 274.652344 91.144531 274.464844 91.03125 274.273438 90.984375 C 272.710938 90.582031 270.953125 90.503906 269.421875 90.03125 C 269.1875 89.632813 268.625 89.742188 268.285156 89.539063 C 268.886719 88.59375 269.480469 87.632813 270.03125 86.585938 C 270.074219 86.199219 269.988281 85.777344 269.988281 85.378906 C 269.992188 85.203125 270.144531 84.875 269.90625 84.757813 C 269.75 84.855469 269.773438 85.300781 269.617188 85.402344 C 269.476563 85.300781 269.613281 85.050781 269.371094 85.003906 C 269.21875 85.402344 269.5625 85.722656 269.269531 86.074219 C 269.019531 85.972656 269.210938 85.636719 268.871094 85.585938 C 268.867188 86.328125 269.199219 87.351563 268.230469 87.5 C 267.96875 87.171875 268.238281 86.558594 267.652344 86.402344 C 267.5 86.660156 267.714844 86.960938 267.6875 87.332031 C 267.664063 87.605469 267.496094 87.886719 267.480469 88.140625 C 267.464844 88.414063 267.609375 88.609375 267.496094 88.835938 C 267.265625 89.277344 266.636719 89.1875 266.15625 89.292969 C 265.6875 89.503906 265.355469 89.804688 264.980469 90.125 C 264.621094 90.429688 264.199219 90.582031 263.871094 90.882813 C 263.265625 91.445313 262.730469 92.160156 262.160156 92.695313 C 261.5625 93.253906 261.148438 93.882813 260.46875 94.148438 C 259.824219 94.058594 259.230469 94.128906 258.628906 94.3125 C 258.019531 94.5 257.4375 94.835938 256.90625 95.113281 C 256.585938 95.285156 256.277344 95.507813 256.015625 95.617188 C 255.855469 95.683594 255.585938 95.683594 255.378906 95.742188 C 255.152344 95.808594 254.929688 95.945313 254.761719 95.964844 C 254.445313 96 254.105469 95.890625 253.773438 96.027344 C 253.222656 95.527344 253.4375 94.722656 253.398438 93.980469 C 253.386719 93.699219 253.273438 93.394531 253.214844 93.09375 C 253.027344 92.152344 252.921875 91.238281 252.339844 90.570313 C 252.265625 90.117188 251.953125 89.859375 252.230469 89.296875 C 253.03125 88.785156 253.269531 87.726563 253.425781 86.773438 C 252.863281 86.660156 252.976563 87.824219 252.464844 87.804688 C 252.136719 87.359375 252.867188 86.355469 252.769531 85.785156 C 252.867188 85.644531 252.953125 85.476563 253.019531 85.265625 C 252.796875 85.128906 252.824219 85.472656 252.648438 85.425781 C 252.476563 85.402344 252.75 85.140625 252.558594 85.125 C 251.996094 85.660156 251.304688 86.042969 251.042969 87.042969 C 250.964844 87.359375 250.996094 87.753906 250.972656 88.171875 C 250.949219 88.5 250.855469 88.835938 250.90625 89.117188 C 250.953125 89.367188 251.082031 89.53125 251.0625 89.808594 C 250.960938 91.15625 250.503906 92.542969 250.808594 93.589844 C 250.875 93.816406 251.089844 93.96875 251.179688 94.164063 C 251.441406 94.730469 251.589844 95.5625 251.378906 96.339844 C 251.46875 97.3125 251.566406 98.277344 251.679688 99.234375 C 252.039063 99.75 252.503906 100.203125 252.4375 100.941406 C 252.855469 101.585938 253.695313 102.011719 253.5625 102.945313 C 253.316406 102.964844 253.109375 103.195313 252.855469 103.003906 C 252.660156 103.171875 252.351563 103.109375 252.09375 103.226563 "/>
<path style=" stroke:none;fill-rule:nonzero;fill:rgb(0%,0%,0%);fill-opacity:1;" d="M 11.589844 204.425781 L 0 204.425781 L 0 194.75 L 32.988281 194.75 L 32.988281 204.425781 L 21.269531 204.425781 L 21.269531 245.703125 L 11.589844 245.703125 L 11.589844 204.425781 "/>
<path style=" stroke:none;fill-rule:nonzero;fill:rgb(0%,0%,0%);fill-opacity:1;" d="M 47.890625 194.75 L 47.890625 214.328125 L 63.871094 214.328125 L 63.871094 194.75 L 73.550781 194.75 L 73.550781 245.703125 L 63.871094 245.703125 L 63.871094 224.382813 L 47.890625 224.382813 L 47.890625 245.703125 L 38.210938 245.703125 L 38.210938 194.75 L 47.890625 194.75 "/>
<path style=" stroke:none;fill-rule:nonzero;fill:rgb(0%,0%,0%);fill-opacity:1;" d="M 123.9375 216.527344 C 119.171875 216.632813 112.234375 217.980469 108.480469 217.046875 C 108.226563 217.152344 107.894531 217.390625 107.558594 217.554688 C 107.089844 217.785156 106.617188 217.863281 106.351563 217.222656 C 106.496094 216.621094 107.027344 216.710938 107.558594 216.785156 C 108.003906 216.847656 108.445313 216.902344 108.660156 216.527344 C 108.613281 215.738281 108.03125 215.46875 107.558594 215.09375 C 107.441406 215.003906 107.335938 214.90625 107.238281 214.796875 C 105.996094 214.796875 104.753906 214.796875 103.511719 214.796875 C 102.5625 215.761719 101.203125 215.628906 100.132813 216.183594 C 99.566406 215.101563 98.777344 215.894531 98.003906 215.835938 C 97.875 215.824219 97.621094 215.378906 97.292969 215.316406 C 96.933594 215.25 96.496094 215.558594 96.226563 215.488281 C 95.683594 215.347656 95.722656 214.984375 95.160156 214.972656 C 94.257813 214.945313 93.457031 215.339844 92.496094 215.488281 C 92.019531 215.148438 91.339844 215.003906 90.898438 214.625 C 90.03125 215.070313 88.664063 214.695313 87.34375 214.796875 C 86.550781 214.859375 85.023438 215.75 84.859375 214.449219 C 85.734375 214.148438 86.828125 214.058594 88.054688 214.105469 C 89.351563 213.371094 90.222656 211.949219 91.765625 212.367188 L 91.765625 204.199219 L 108.515625 204.199219 L 108.515625 194.75 L 82.085938 194.75 L 82.085938 217.222656 C 80.953125 217.792969 79.101563 217.65625 78.535156 218.777344 C 79.769531 219.132813 81.550781 218.949219 82.085938 219.980469 L 82.085938 245.703125 L 109.40625 245.703125 L 109.40625 236.253906 L 91.765625 236.253906 L 91.765625 224.15625 L 91.785156 224.15625 C 91.785156 224.152344 91.785156 224.148438 91.785156 224.144531 C 92.027344 224.152344 92.269531 224.152344 92.511719 224.15625 L 95.605469 224.15625 C 97.738281 224.132813 99.886719 224.089844 101.925781 224.15625 L 104.621094 224.15625 C 104.921875 223.191406 106.246094 223.226563 106.351563 222.070313 C 106.730469 221.894531 107.160156 221.769531 107.558594 221.613281 C 108.257813 221.339844 108.851563 220.960938 108.839844 219.992188 C 108.445313 219.972656 108.015625 219.996094 107.558594 220.046875 C 105.128906 220.316406 101.960938 221.367188 100.132813 221.03125 C 100.691406 220.246094 101.246094 219.460938 102.089844 218.953125 C 103.777344 219.21875 105.691406 219.269531 107.558594 219.367188 C 108.109375 219.394531 108.65625 219.429688 109.191406 219.472656 C 109.585938 219.335938 109.160156 218.398438 109.902344 218.605469 C 114.726563 218.859375 120.199219 218.921875 124.824219 219.125 C 126.085938 219.183594 127.710938 219.832031 128.554688 218.953125 C 127.15625 218.007813 125.335938 217.472656 123.9375 216.527344 "/>
</g>
</svg>
