<?xml version="1.0" encoding="UTF-8" standalone="no"?>
<svg
   id="svg16"
   xml:space="preserve"
   viewBox="0 0 311.76001 311.76001"
   height="311.76001"
   width="311.76001"
   version="1.1"
   sodipodi:docname="logo_name_light - Copy.svg"
   inkscape:version="1.1 (c68e22c387, 2021-05-23)"
   xmlns:inkscape="http://www.inkscape.org/namespaces/inkscape"
   xmlns:sodipodi="http://sodipodi.sourceforge.net/DTD/sodipodi-0.dtd"
   xmlns="http://www.w3.org/2000/svg"
   xmlns:svg="http://www.w3.org/2000/svg"
   xmlns:rdf="http://www.w3.org/1999/02/22-rdf-syntax-ns#"
   xmlns:cc="http://creativecommons.org/ns#"
   xmlns:dc="http://purl.org/dc/elements/1.1/"><sodipodi:namedview
     id="namedview22"
     pagecolor="#ffffff"
     bordercolor="#666666"
     borderopacity="1.0"
     inkscape:pageshadow="2"
     inkscape:pageopacity="0.0"
     inkscape:pagecheckerboard="0"
     showgrid="false"
     inkscape:zoom="0.55919662"
     inkscape:cx="941.5293"
     inkscape:cy="149.32136"
     inkscape:window-width="2560"
     inkscape:window-height="1057"
     inkscape:window-x="-8"
     inkscape:window-y="-8"
     inkscape:window-maximized="1"
     inkscape:current-layer="svg16"
     fit-margin-top="0"
     fit-margin-left="0"
     fit-margin-right="0"
     fit-margin-bottom="0" /><metadata
     id="metadata20"><rdf:RDF><cc:Work
         rdf:about=""><dc:format>image/svg+xml</dc:format><dc:type
           rdf:resource="http://purl.org/dc/dcmitype/StillImage" /></cc:Work></rdf:RDF></metadata><desc
     id="desc2">Created with Fabric.js 2.4.6</desc><defs
     id="defs4" /><g
     id="g8"
     transform="matrix(12.99,0,0,12.99,155.88,155.88)"><path
       id="path6"
       d="m 20.707,12.707 -4,4 C 16.512,16.902 16.256,17 16,17 c -0.256,0 -0.512,-0.098 -0.707,-0.293 -0.391,-0.391 -0.391,-1.023 0,-1.414 L 18.586,12 15.293,8.707 c -0.391,-0.391 -0.391,-1.023 0,-1.414 0.391,-0.391 1.023,-0.391 1.414,0 l 4,4 c 0.391,0.391 0.391,1.023 0,1.414 z m -8.721,5.458 C 11.905,18.653 11.481,19 11.001,19 10.946,19 10.892,18.996 10.836,18.986 10.291,18.895 9.923,18.38 10.014,17.835 l 2,-12 c 0.089,-0.544 0.604,-0.914 1.15,-0.821 0.545,0.09 0.913,0.606 0.822,1.151 z M 8.707,15.293 c 0.391,0.391 0.391,1.023 0,1.414 C 8.512,16.902 8.256,17 8,17 7.744,17 7.488,16.902 7.293,16.707 l -4,-4 c -0.391,-0.391 -0.391,-1.023 0,-1.414 l 4,-4 c 0.391,-0.391 1.023,-0.391 1.414,0 0.391,0.391 0.391,1.023 0,1.414 L 5.414,12 Z M 23,0 H 1 C 0.447,0 0,0.448 0,1 v 22 c 0,0.552 0.447,1 1,1 h 22 c 0.553,0 1,-0.448 1,-1 V 1 C 24,0.448 23.553,0 23,0 Z"
       transform="translate(-12,-12)"
       style="opacity:1;fill:#ffffff;fill-rule:nonzero;stroke:none;stroke-width:1;stroke-linecap:butt;stroke-linejoin:miter;stroke-miterlimit:4;stroke-dasharray:none;stroke-dashoffset:0" /></g></svg>
