<?xml version="1.0" encoding="UTF-8" standalone="no"?>
<svg
   id="svg16"
   xml:space="preserve"
   viewBox="0 0 2411 319"
   height="319"
   width="2411"
   version="1.1"
   sodipodi:docname="logo.svg"
   inkscape:version="1.1 (c68e22c387, 2021-05-23)"
   xmlns:inkscape="http://www.inkscape.org/namespaces/inkscape"
   xmlns:sodipodi="http://sodipodi.sourceforge.net/DTD/sodipodi-0.dtd"
   xmlns="http://www.w3.org/2000/svg"
   xmlns:svg="http://www.w3.org/2000/svg"
   xmlns:rdf="http://www.w3.org/1999/02/22-rdf-syntax-ns#"
   xmlns:cc="http://creativecommons.org/ns#"
   xmlns:dc="http://purl.org/dc/elements/1.1/"><sodipodi:namedview
     id="namedview22"
     pagecolor="#ffffff"
     bordercolor="#666666"
     borderopacity="1.0"
     inkscape:pageshadow="2"
     inkscape:pageopacity="0.0"
     inkscape:pagecheckerboard="0"
     showgrid="false"
     width="1893px"
     inkscape:zoom="0.55919662"
     inkscape:cx="1022.0019"
     inkscape:cy="160.05104"
     inkscape:window-width="2560"
     inkscape:window-height="1057"
     inkscape:window-x="-8"
     inkscape:window-y="-8"
     inkscape:window-maximized="1"
     inkscape:current-layer="svg16" /><metadata
     id="metadata20"><rdf:RDF><cc:Work
         rdf:about=""><dc:format>image/svg+xml</dc:format><dc:type
           rdf:resource="http://purl.org/dc/dcmitype/StillImage" /></cc:Work></rdf:RDF></metadata><desc
     id="desc2">Created with Fabric.js 2.4.6</desc><defs
     id="defs4" /><g
     id="g8"
     transform="matrix(12.99,0,0,12.99,158.38,161.42)"><path
       id="path6"
       d="m 20.707,12.707 -4,4 C 16.512,16.902 16.256,17 16,17 c -0.256,0 -0.512,-0.098 -0.707,-0.293 -0.391,-0.391 -0.391,-1.023 0,-1.414 L 18.586,12 15.293,8.707 c -0.391,-0.391 -0.391,-1.023 0,-1.414 0.391,-0.391 1.023,-0.391 1.414,0 l 4,4 c 0.391,0.391 0.391,1.023 0,1.414 z m -8.721,5.458 C 11.905,18.653 11.481,19 11.001,19 10.946,19 10.892,18.996 10.836,18.986 10.291,18.895 9.923,18.38 10.014,17.835 l 2,-12 c 0.089,-0.544 0.604,-0.914 1.15,-0.821 0.545,0.09 0.913,0.606 0.822,1.151 z M 8.707,15.293 c 0.391,0.391 0.391,1.023 0,1.414 C 8.512,16.902 8.256,17 8,17 7.744,17 7.488,16.902 7.293,16.707 l -4,-4 c -0.391,-0.391 -0.391,-1.023 0,-1.414 l 4,-4 c 0.391,-0.391 1.023,-0.391 1.414,0 0.391,0.391 0.391,1.023 0,1.414 L 5.414,12 Z M 23,0 H 1 C 0.447,0 0,0.448 0,1 v 22 c 0,0.552 0.447,1 1,1 h 22 c 0.553,0 1,-0.448 1,-1 V 1 C 24,0.448 23.553,0 23,0 Z"
       transform="translate(-12,-12)"
       style="opacity:1;fill:#000000;fill-rule:nonzero;stroke:none;stroke-width:1;stroke-linecap:butt;stroke-linejoin:miter;stroke-miterlimit:4;stroke-dasharray:none;stroke-dashoffset:0" /></g><g
     id="g14"
     transform="translate(1390.98,165.04)"><g
       id="text12"
       style="font-style:normal;font-weight:normal;font-size:282px;font-family:Lato;white-space:pre;opacity:1;fill:#000000;fill-rule:nonzero;stroke:none;stroke-width:1;stroke-linecap:butt;stroke-linejoin:miter;stroke-miterlimit:4;stroke-dasharray:none;stroke-dashoffset:0"
       aria-label="JOZEF CSÖRGEI"><path
         id="path22"
         d="m -951.75296,18.794996 q 0,16.92 -4.23,30.315 -4.089,13.395 -12.267,22.701 -8.037,9.165 -19.881,14.1 -11.844,4.935 -27.21304,4.935 -13.959,0 -28.482,-3.948 0.282,-4.089 0.705,-8.037 0.423,-4.089 0.705,-8.037 0.282,-2.397 1.692,-3.807 1.551,-1.551 4.653,-1.551 2.538,0 6.627,1.269 4.23,1.269 11.28,1.269 9.306,0 16.638,-2.82 7.33204,-2.82 12.26704,-8.742 4.935,-5.922 7.473,-15.087 2.679,-9.306 2.679,-21.996 V -113.463 h 27.354 z" /><path
         id="path24"
         d="m -715.75421,-12.366004 q 0,22.701 -7.191,41.736 -7.191,18.894 -20.304,32.571 -13.113,13.677 -31.584,21.291 -18.33,7.473 -40.608,7.473 -22.278,0 -40.608,-7.473 -18.33,-7.614 -31.443,-21.291 -13.113,-13.677 -20.304,-32.571 -7.191,-19.035 -7.191,-41.736 0,-22.701 7.191,-41.595 7.191,-19.035 20.304,-32.712 13.113,-13.817996 31.443,-21.431996 18.33,-7.614 40.608,-7.614 22.278,0 40.608,7.614 18.471,7.614 31.584,21.431996 13.113,13.677 20.304,32.712 7.191,18.894 7.191,41.595 z m -28.059,0 q 0,-18.612 -5.076,-33.417 -5.076,-14.805 -14.382,-24.957 -9.306,-10.293 -22.56,-15.792 -13.254,-5.499 -29.61,-5.499 -16.215,0 -29.469,5.499 -13.254,5.499 -22.701,15.792 -9.306,10.152 -14.382,24.957 -5.076,14.805 -5.076,33.417 0,18.6120003 5.076,33.417 5.076,14.664 14.382,24.957 9.447,10.152 22.701,15.651 13.254,5.358 29.469,5.358 16.356,0 29.61,-5.358 13.254,-5.499 22.56,-15.651 9.306,-10.293 14.382,-24.957 5.076,-14.8049997 5.076,-33.417 z" /><path
         id="path26"
         d="m -546.22815,-103.311 q 0,4.652996 -2.82,9.023996 l -114.351,160.599 h 115.479 v 22.278 h -151.434 v -10.716 q 0,-2.256 0.705,-4.23 0.846,-1.974 1.974,-3.807 l 114.633,-161.022 h -111.954 V -113.463 h 147.768 z" /><path
         id="path28"
         d="m -386.73952,66.311996 -0.141,22.278 h -124.503 V -113.463 h 124.503 v 22.277996 h -97.149 v 67.116 h 78.678 v 21.4320003 h -78.678 V 66.311996 Z" /><path
         id="path30"
         d="m -320.99827,-91.185004 v 70.641 h 83.049 V 1.7339963 h -83.049 V 88.589996 h -27.354 V -113.463 h 124.503 v 22.277996 z" /><path
         id="path32"
         d="m 18.763258,46.853996 q 2.256,0 3.948,1.833 l 10.857,11.703 q -12.408,14.382 -30.1740002,22.419 -17.6249998,8.037 -42.7229998,8.037 -21.714,0 -39.48,-7.473 -17.766,-7.614 -30.314998,-21.15 -12.549,-13.677 -19.458,-32.712 -6.909,-19.035 -6.909,-41.877 0,-22.842 7.191,-41.877 7.191,-19.035 20.163,-32.712 13.112998,-13.676996 31.301998,-21.149996 18.189,-7.614 40.185,-7.614 21.573,0 38.0699998,6.909 16.4970002,6.909 29.0460002,18.752996 l -9.024,12.549 q -0.846,1.41 -2.256,2.397 -1.269,0.846 -3.525,0.846 -2.538,0 -6.2040002,-2.679 -3.666,-2.82 -9.58799999,-6.204 -5.92200001,-3.384 -14.80499981,-6.063 -8.883,-2.82 -21.855,-2.82 -15.651,0 -28.623,5.499 -12.972,5.358 -22.419,15.651 -9.306,10.293 -14.522998,25.098 -5.217,14.805 -5.217,33.417 0,18.8940003 5.358,33.699 5.498998,14.805 14.804998,25.098 9.447,10.152 22.137,15.51 12.831,5.358 27.636,5.358 9.024,0 16.215,-0.987 7.332,-1.128 13.3949998,-3.384 6.204,-2.256 11.421,-5.64 5.358,-3.525 10.5750002,-8.319 2.397,-2.115 4.794,-2.115 z" /><path
         id="path34"
         d="m 168.63745,-81.879004 q -1.269,2.115 -2.82,3.243 -1.41,0.987 -3.525,0.987 -2.397,0 -5.64,-2.397 -3.243,-2.397 -8.178,-5.217 -4.794,-2.961 -11.703,-5.358 -6.768,-2.397 -16.497,-2.397 -9.165,0 -16.215,2.538 -6.909005,2.397 -11.703005,6.627 -4.653,4.23 -7.05,10.011 -2.397,5.64 -2.397,12.267 0,8.46 4.089,14.1 4.23,5.499 10.998,9.447 6.909005,3.948 15.510005,6.909 8.742,2.82 17.766,5.922 9.165,3.102 17.766,7.05 8.742,3.807 15.51,9.7290003 6.909,5.922 10.998,14.523 4.23,8.6009997 4.23,21.1499997 0,13.254 -4.512,24.957 -4.512,11.562 -13.254,20.163 -8.601,8.601 -21.291,13.536 -12.549,4.935 -28.623,4.935 -19.740005,0 -35.814005,-7.05 -16.074,-7.191 -27.495,-19.317 l 7.896,-12.972 q 1.128,-1.551 2.679,-2.538 1.692,-1.128 3.666,-1.128 1.833,0 4.089,1.551 2.397,1.41 5.358,3.666 2.961,2.256 6.768,4.935 3.807,2.679 8.601,4.935 4.935,2.256 11.139,3.807 6.204005,1.41 13.959005,1.41 9.729,0 17.343,-2.679 7.614,-2.679 12.831,-7.473 5.358,-4.935 8.178,-11.703 2.82,-6.768 2.82,-15.087 0,-9.165 -4.23,-14.946 -4.089,-5.922 -10.857,-9.8699997 -6.768,-3.948 -15.51,-6.62699996 -8.742,-2.82000004 -17.766,-5.64000004 -9.024005,-2.961 -17.766005,-6.7680003 -8.742,-3.807 -15.51,-9.87 -6.768,-6.063 -10.998,-15.087 -4.089,-9.165 -4.089,-22.56 0,-10.716 4.089,-20.727 4.23,-10.011 12.126,-17.766 8.037,-7.754996 19.599,-12.407996 11.703005,-4.653 26.790005,-4.653 16.92,0 30.738,5.358 13.959,5.358 24.534,15.509996 z" /><path
         id="path36"
         d="m 405.08563,-12.366004 q 0,22.701 -7.191,41.736 -7.191,18.894 -20.304,32.571 -13.113,13.677 -31.584,21.291 -18.33,7.473 -40.608,7.473 -22.278,0 -40.608,-7.473 -18.33,-7.614 -31.443,-21.291 -13.113,-13.677 -20.304,-32.571 -7.191,-19.035 -7.191,-41.736 0,-22.701 7.191,-41.595 7.191,-19.035 20.304,-32.712 13.113,-13.817996 31.443,-21.431996 18.33,-7.614 40.608,-7.614 22.278,0 40.608,7.614 18.471,7.614 31.584,21.431996 13.113,13.677 20.304,32.712 7.191,18.894 7.191,41.595 z m -28.059,0 q 0,-18.612 -5.076,-33.417 -5.076,-14.805 -14.382,-24.957 -9.306,-10.293 -22.56,-15.792 -13.254,-5.499 -29.61,-5.499 -16.215,0 -29.469,5.499 -13.254,5.499 -22.701,15.792 -9.306,10.152 -14.382,24.957 -5.076,14.805 -5.076,33.417 0,18.6120003 5.076,33.417 5.076,14.664 14.382,24.957 9.447,10.152 22.701,15.651 13.254,5.358 29.469,5.358 16.356,0 29.61,-5.358 13.254,-5.499 22.56,-15.651 9.306,-10.293 14.382,-24.957 5.076,-14.8049997 5.076,-33.417 z M 291.72163,-146.316 q 0,3.102 -1.269,5.922 -1.269,2.679 -3.525,4.794 -2.115,2.115 -5.076,3.384 -2.82,1.128 -5.922,1.128 -2.961,0 -5.781,-1.128 -2.679,-1.269 -4.794,-3.384 -2.115,-2.115 -3.384,-4.794 -1.269,-2.82 -1.269,-5.922 0,-3.243 1.269,-6.063 1.269,-2.961 3.384,-5.076 2.115,-2.115 4.794,-3.384 2.82,-1.269 5.781,-1.269 3.102,0 5.922,1.269 2.961,1.269 5.076,3.384 2.256,2.115 3.525,5.076 1.269,2.82 1.269,6.063 z m 58.938,0 q 0,3.102 -1.269,5.922 -1.269,2.679 -3.384,4.794 -2.115,2.115 -4.935,3.384 -2.82,1.128 -5.922,1.128 -3.243,0 -6.063,-1.128 -2.82,-1.269 -4.935,-3.384 -2.115,-2.115 -3.384,-4.794 -1.128,-2.82 -1.128,-5.922 0,-3.243 1.128,-6.063 1.269,-2.961 3.384,-5.076 2.115,-2.115 4.935,-3.384 2.82,-1.269 6.063,-1.269 3.102,0 5.922,1.269 2.82,1.269 4.935,3.384 2.115,2.115 3.384,5.076 1.269,2.82 1.269,6.063 z" /><path
         id="path38"
         d="m 500.19895,-15.609004 q 11.844,0 20.868,-2.82 9.165,-2.961 15.228,-8.178 6.204,-5.358 9.306,-12.69 3.102,-7.332 3.102,-16.215 0,-18.048 -11.844,-27.213 -11.844,-9.165 -35.532,-9.165 h -29.892 v 76.281 z m 93.342,104.199 h -24.252 q -7.473,0 -10.998,-5.781 l -52.452,-72.192 q -2.397,-3.3839997 -5.217,-4.7939997 -2.679,-1.551 -8.46,-1.551 h -20.727 V 88.589996 h -27.213 V -113.463 h 57.105 q 19.176,0 33.135,3.948 13.959,3.807 22.983,11.138996 9.165,7.332 13.536,17.766 4.371,10.293 4.371,23.124 0,10.716 -3.384,20.022 -3.384,9.306 -9.87,16.779 -6.345,7.332 -15.651,12.5490003 -9.165,5.217 -20.868,7.89600004 5.217,2.96099996 9.024,8.60099996 z" /><path
         id="path40"
         d="M 782.9436,-8.5590037 V 68.990996 q -15.228,10.998 -32.571,16.497 -17.202,5.358 -37.788,5.358 -24.393,0 -43.992,-7.473 -19.599,-7.614 -33.558,-21.15 -13.818,-13.677 -21.291,-32.712 -7.473,-19.035 -7.473,-41.877 0,-23.124 7.191,-42.159 7.332,-19.035 20.727,-32.571 13.395,-13.676996 32.571,-21.149996 19.176,-7.473 42.864,-7.473 11.985,0 22.278,1.833 10.293,1.692 19.035,5.076 8.742,3.243 16.215,8.037 7.473,4.652996 13.959,10.574996 l -7.755,12.408 q -1.833,2.82 -4.794,3.666 -2.82,0.705 -6.345,-1.41 -3.384,-1.974 -7.755,-4.794 -4.371,-2.82 -10.716,-5.358 -6.204,-2.679 -14.805,-4.512 -8.46,-1.833 -20.163,-1.833 -17.061,0 -30.879,5.64 -13.818,5.499 -23.547,15.933 -9.729,10.293 -14.946,25.098 -5.217,14.664 -5.217,32.994 0,19.0350003 5.358,34.122 5.499,14.946 15.51,25.521 10.152,10.434 24.534,15.933 14.382,5.499 32.289,5.499 14.1,0 24.957,-3.102 10.998,-3.243 21.432,-8.883 v -44.415 h -31.443 q -2.679,0 -4.371,-1.551 -1.551,-1.5509997 -1.551,-3.8069997 v -15.51 z" /><path
         id="path42"
         d="m 949.45579,66.311996 -0.141,22.278 h -124.503 V -113.463 h 124.503 v 22.277996 h -97.149 v 67.116 h 78.678 v 21.4320003 h -78.678 V 66.311996 Z" /><path
         id="path44"
         d="M 1015.197,88.589996 H 987.84304 V -113.463 h 27.35396 z" /></g></g></svg>
